<?xml version="1.0" standalone="no"?>
<!DOCTYPE svg PUBLIC "-//W3C//DTD SVG 1.1//EN" "http://www.w3.org/Graphics/SVG/1.1/DTD/svg11.dtd" >
<svg>
<metadata>
Created by FontForge 20120731 at Sat Jul 26 19:45:11 2014
 By 三宅 暁
Created by Ubuntu with FontForge 2.0 (http://fontforge.sf.net)
</metadata>
<defs>
<font id="ios7-icon" horiz-adv-x="512" >
  <font-face 
    font-family="ios7-icon"
    font-weight="500"
    font-stretch="normal"
    units-per-em="512"
    panose-1="2 0 6 9 0 0 0 0 0 0"
    ascent="448"
    descent="-64"
    bbox="-32 -68 533 470"
    underline-thickness="25"
    underline-position="-52"
    unicode-range="U+0073-F204"
  />
<missing-glyph 
d="M17 0v341h136v-341h-136zM34 17h102v307h-102v-307z" />
    <glyph glyph-name=".notdef" 
d="M17 0v341h136v-341h-136zM34 17h102v307h-102v-307z" />
    <glyph glyph-name=".null" horiz-adv-x="0" 
 />
    <glyph glyph-name="nonmarkingreturn" 
 />
    <glyph glyph-name="uniF100" unicode="&#xf100;" 
d="M214 188q-5 -6 -13 -6q-5 0 -9 2q-10 5 -17 16t-7 22q0 9 5 15t13 6q4 0 9 -2q10 -4 17 -15t7 -23q0 -9 -5 -15zM161 151q-5 -6 -12 -6q-5 0 -9 2q-10 5 -16 15.5t-6 21.5q0 21 16 21q4 0 9 -2q9 -5 16 -16t7 -22q0 -9 -5 -14zM111 115q-4 -6 -11 -6q-5 0 -10 3
q-8 4 -14.5 15t-6.5 22q0 19 16 19q4 0 9 -2q9 -4 15 -15t6 -22q0 -9 -4 -14zM417 125q-5 -2 -10 -2q-16 0 -16 20q0 11 6.5 21.5t15.5 15.5q5 2 9 2q16 0 16 -20q0 -11 -6 -21.5t-15 -15.5zM356 168q-5 -2 -10 -2q-7 0 -12 5.5t-5 14.5q0 12 7 23t17 15q4 2 9 2
q7 0 12 -5.5t5 -14.5q0 -12 -7 -22.5t-16 -15.5zM285 351q-10 -3 -23 -3t-22 3q-11 4 -11 11.5t11 11.5q22 9 44 1q12 -5 12 -12t-11 -12zM20 73l246 -118l226 118v296l-236 59l-236 -59v-296zM256 -17.6607l-215 103.661v260.849l215 -68.656v-295.854zM276 -16.233
v294.703l195 67.672v-260.142zM68.5719 359.925l187.428 47.075l188.992 -47.468l-179.992 -62.532z" />
    <glyph glyph-name="uniF101" unicode="&#xf101;" 
d="M158 146l-14 14q-15 -15 -15 -36t15 -36t36 -15t36 15l155 155l-15 14l-155 -154q-8 -9 -21 -9t-22 9t-9 21.5t9 21.5zM284 329l-14 15l-202 -202q-27 -27 -27 -65t27 -65t65 -27t65 27l252 252q21 21 21 51t-21 51t-50.5 21t-50.5 -21l-205 -206l14 -14l205 205
q15 15 36.5 15t36.5 -15t15 -36t-15 -36l-253 -252q-20 -21 -50 -21t-51 21t-21 50.5t21 50.5z" />
    <glyph glyph-name="uniF102" unicode="&#xf102;" 
d="M499 185l6 7l-6 7q-5 5 -12.5 13.5t-33.5 30.5t-53 38.5t-66.5 30t-77.5 13.5t-77.5 -13.5t-66.5 -30t-53 -38.5t-33.5 -30.5t-12.5 -13.5l-6 -7l6 -7q5 -5 12.5 -13.5t33.5 -30.5t53 -38.5t66.5 -30t77.5 -13.5t77.5 13.5t66.5 30t53 38.5t33.5 30.5t12.5 13.5zM478 192
q-14 -14 -32 -29.5t-48 -36t-67.5 -34t-74.5 -13.5t-75.5 14t-68.5 35t-47.5 36t-30.5 28q14 14 32 29.5t48 36t67.5 34t74.5 13.5t75.5 -14t68.5 -35t47.5 -36t30.5 -28zM347 305l-15 -14q26 -29 26 -68q0 -43 -30 -73t-72 -30t-72 30t-30 73q0 39 26 68l-15 14
q-32 -35 -32 -82q0 -51 36 -87t87 -36t87 36t36 87q0 47 -32 82zM225 223q0 17 7 23.5t24 6.5t24 -6.5t7 -23.5t-7 -24t-24 -7t-24 7t-7 24zM205 223q0 -24 13.5 -37.5t37.5 -13.5t37.5 13.5t13.5 37.5t-13.5 37.5t-37.5 13.5t-37.5 -13.5t-13.5 -37.5z" />
    <glyph glyph-name="uniF103" unicode="&#xf103;" 
d="M375 133l-15 14l-104 -104l-104 105l-15 -15l119 -119zM266 356h-20v-322h20v322z" />
    <glyph glyph-name="uniF104" unicode="&#xf104;" 
d="M211 70q8 -7 20 -9l-1 48q-10 2 -18 5t-13 6.5t-7.5 9t-2.5 13.5t3.5 15t9 12t13 8t15.5 3v12h11v-12q16 -2 26 -11t14 -24h-17q-4 17 -23 20v-44l12 -3q4 -1 9.5 -3t10.5 -6t8.5 -10t3.5 -14q0 -9 -3 -16t-9 -11.5t-14 -7.5t-17 -4v-15h-11v15q-20 2 -32 12.5t-14 29.5
h17q1 -12 9 -19zM252 63q5 1 8.5 4t5 7t1.5 10t-2 9t-5 5.5t-8 4.5t-11 3l1 -45zM214 160.5q-7 -5.5 -7 -15.5q0 -5 2 -8t5 -5.5t7 -3.5q5 -2 9 -3v42q-9 -1 -16 -6.5zM286 269l2 -6l6 -2q55 -16 98 -65t43 -102q0 -64 -40.5 -87t-153.5 -23t-153.5 22.5t-40.5 87.5
q0 50 40.5 101t87.5 62l7 1l1 8q1 8 0 16.5t-2 15t-4 14l-5 12.5t-6 10.5t-6.5 9t-6 7.5t-5.5 6t-4.5 4l-2.5 2q-5 5 -7 9q8 3 21 3q14 0 20.5 0.5t17.5 4.5t17 13q11 15 17.5 14.5t23.5 -18.5q10 -9 21 -10t26 3t19 5q-2 -5 -8 -15q-35 -55 -23 -103zM305 279
q-1 12 -1.5 19.5t1.5 16.5t3.5 14t5 11.5t5 9.5t4.5 6.5t3 4.5q3 4 5.5 9t6 15t-1.5 16t-19 6q-11 0 -23.5 -3t-16.5 -3.5t-11 3.5q-42 42 -72 1q-7 -10 -39 -10q-24 0 -33 -8.5t-6.5 -19t11.5 -18.5q36 -36 36 -74q-54 -17 -95.5 -71t-41.5 -110q0 -75 49 -102.5t166 -27.5
t166 27.5t49 102.5q0 60 -46 113t-105 72zM134 380l-18 -10q19 -32 43 -43t43 6q2 2 6 5.5t5 4.5t3.5 3t3.5 1.5t2.5 -0.5t3.5 -2l4 -4t5 -6q14 -13 28.5 -11t26.5 13q4 3 19 14t20.5 19t3.5 19l-20 -3q0 -2 -2.5 -4.5t-13.5 -11.5t-20 -18q-18 -15 -26 -4
q-12 14 -23.5 16.5t-20 -2t-19.5 -14.5q-6 -3 -13 -4t-18.5 8t-22.5 28zM178 276l-11 -18q3 -2 7.5 -4t19 -6t29.5 -5t36.5 3.5t41.5 15.5q3 2 20 12.5t25.5 14.5t25.5 4.5t33 -8.5l10 18q-17 9 -33.5 11.5t-31 -2.5t-24 -10t-21.5 -13t-14 -9q-28 -16 -56.5 -17t-42.5 6z
M293 281l7 -19q58 22 92 -15l15 13q-18 20 -44 26t-41 3t-29 -8z" />
    <glyph glyph-name="uniF105" unicode="&#xf105;" 
d="M484 294l-228 -227l-228 227l22 22l206 -207l206 207z" />
    <glyph glyph-name="uniF106" unicode="&#xf106;" 
d="M225 239q0 -12 -7.5 -19t-18.5 -7q-15 0 -20 5q10 -25 15 -36q1 -1 -9.5 -1.5t-21 0t-9.5 1.5l15 36q-6 -5 -20 -5q-11 0 -18.5 7t-7.5 19t13 28.5t25 26.5l13 11q6 -5 14.5 -12t22.5 -24.5t14 -29.5zM0 407v-348q0 -17 12 -29t29 -12h266q17 0 29 12t12 29v348
q0 17 -12 29t-29 12h-266q-17 0 -29 -12t-12 -29zM20 407q0 9 6 15t15 6h266q9 0 15 -6t6 -15v-348q0 -9 -6 -15t-15 -6h-266q-9 0 -15 6t-6 15v348zM266 406q1 1 2 1h7q2 0 2 -1l28 -80q0 -1 -1 -1h-8q-1 0 -2 1l-6 18h-33l-6 -18q-1 -1 -2 -1h-8q-2 0 -1 1zM284 354
l-12 37h-1l-13 -37h26zM82 60q0 -1 -1 -1h-8q-1 0 -2 1l-28 80q0 1 1 1h8q2 0 2 -1l6 -18h33l7 18q0 1 1 1h9q1 0 0 -1zM64 112l13 -37l13 37h-26zM341 391l-6 -20l142 -44q8 -2 12 -9.5t1 -15.5l-103 -333q-3 -8 -10.5 -12t-15.5 -1l-263 82l-6 -20l263 -82q16 -5 31 3
t20 24l104 332q5 17 -3 32t-24 20zM431 319q1 1 2 0l8 -2q1 0 1 -2l3 -84q0 -1 -1 -1l-8 3q-2 0 -2 1v19l-32 10l-11 -15q-1 -1 -2 -1l-8 3q-1 0 0 1zM433 264l-1 39l-24 -31z" />
    <glyph glyph-name="uniF107" unicode="&#xf107;" 
d="M61 305v-21h390v21h-390zM61 212v-40h390v40h-390zM61 100v-62h390v62h-390z" />
    <glyph glyph-name="uniF108" unicode="&#xf108;" 
d="M491 202q0 85 -69 144.5t-166 59.5t-166 -59.5t-69 -144.5q0 -49 24.5 -91t67.5 -71q-4 -34 -29 -68l-10 -15h18q60 0 106 47q29 -6 58 -6q97 0 166 59.5t69 144.5zM472 202q0 -76 -63 -130.5t-153 -54.5q-30 0 -59 7l-6 2l-4 -5l-10.5 -10.5t-27 -18t-39.5 -14.5
q22 39 22 67v5l-4 3q-41 26 -64.5 65t-23.5 84q0 76 63 130.5t153 54.5t153 -54.5t63 -130.5z" />
    <glyph glyph-name="uniF109" unicode="&#xf109;" 
d="M143 325q0 16 12.5 28.5t27.5 12.5h149q15 0 26 -11t11 -26v-335q0 -16 -11 -27t-26 -11h-148q-13 0 -27 12t-14 29v328zM123 325v-328q0 -26 20 -43.5t41 -17.5h148q23 0 40 17t17 41v335q0 24 -17 41t-40 17h-149q-24 0 -42 -19t-18 -43zM184 18v297h144v-297h-144z
M164 -3h184v338h-184v-338zM241 -23q0 15 15 15t15 -15t-15 -15t-15 15z" />
    <glyph glyph-name="uniF10A" unicode="&#xf10a;" 
d="M490 391l-18 10l-132 -249q-25 0 -51 21.5t-26 39.5l123 177l-17 12l-125 -181l-1 -2q-6 -34 34 -63.5t71 -23.5l5 1zM254 189l-1 20q-41 -2 -68.5 -19t-39.5 -41t-22.5 -54t-19 -56.5t-27.5 -49.5t-49 -33l-59 -20h63q68 0 114.5 4.5t87 17.5t63.5 36t36 59t13 88h-20
q0 -55 -13 -90t-45 -55.5t-76.5 -28.5t-116.5 -10q26 20 42.5 51.5t24 60.5t17.5 56t33.5 44.5t62.5 19.5z" />
    <glyph glyph-name="uniF10B" unicode="&#xf10b;" 
d="M471 -3h-20v-30q0 -5 -3 -8t-8 -3h-41q-4 0 -7 3t-3 8v20h-20v-20q0 -13 9 -22t21 -9h41q13 0 22 9t9 22v30zM143 -13h-20v-20q0 -5 -3 -8t-7 -3h-41q-5 0 -8 3t-3 8v30h-20v-30q0 -13 9 -22t22 -9h41q12 0 21 9t9 22v20zM461 356v-328q0 -18 -12 -24.5t-39 -6.5h-308
q-27 0 -39 6.5t-12 24.5v338q0 37 14 49.5t58 12.5h287q31 0 41 -15.5t10 -56.5zM481 356q0 45 -15 68.5t-56 23.5h-287q-49 0 -70.5 -19t-21.5 -63v-338q0 -51 71 -51h308q71 0 71 51v328zM369 64q0 14 5.5 20t20 6t20 -6t5.5 -20t-5.5 -20t-20 -6t-20 6t-5.5 20zM348 64
q0 -22 12.5 -34t34 -12t33.5 12t12 34t-12 34t-33.5 12t-34 -12t-12.5 -34zM92 64q0 14 5.5 20t20 6t20 -6t5.5 -20t-5.5 -20t-20 -6t-20 6t-5.5 20zM72 64q0 -22 12 -34t33.5 -12t34 12t12.5 34t-12.5 34t-34 12t-33.5 -12t-12 -34zM471 325v-20h21v-82h-21v-21h21
q8 0 14 6t6 15v82q0 8 -6 14t-14 6h-21zM41 305v20h-21q-8 0 -14 -6t-6 -14v-82q0 -9 6 -15t14 -6h21v21h-21v82h21zM389 376v21q0 8 -6 14t-14 6h-215q-9 0 -15 -6t-6 -14v-21q0 -8 6 -14t15 -6h215q8 0 14 6t6 14zM369 376h-215v21h215v-21zM399 142q14 0 27.5 10.5
t13.5 29.5v123q0 19 -11 30t-30 11h-286q-19 0 -30 -11t-11 -30v-123q0 -19 11 -30t30 -11zM399 162l-286 -1q-12 0 -16.5 4.5t-4.5 16.5v123q0 11 4.5 15.5t16.5 4.5h286q12 0 16.5 -4.5t4.5 -15.5v-123q0 -9 -7 -14.5t-14 -5.5z" />
    <glyph glyph-name="uniF10C" unicode="&#xf10c;" 
d="M20 192q0 119 58.5 177.5t177.5 58.5t177.5 -58.5t58.5 -177.5t-58.5 -177.5t-177.5 -58.5t-177.5 58.5t-58.5 177.5zM0 192q0 -126 65 -191t191 -65t191 65t65 191t-65 191t-191 65t-191 -65t-65 -191zM296 83v-1l1 -1q7 -19 31 -31q21 -11 50 -22q17 -7 31 -17
q-20 -20 -57 -36q-43 -20 -95 -20q-33 0 -70 14q-37 15 -57 28q-14 9 -25 18q12 9 30 15q28 11 49 20q25 12 32 31v1v1q1 9 1 14l1 9l-10 1q-49 5 -63 16q8 13 10 40q2 29 3 63q1 32 7 64q7 30 29.5 51t62.5 24q20 0 31 -9l3 -3l4 1q27 1 42 -17q15 -19 19 -48q3 -32 3 -65
q0 -34 2 -63q1 -25 9 -38q-7 -3 -13 -6q-20 -7 -52 -10l-10 -1l1 -10v-13zM316 88q30 4 48 10q28 10 28 26v6l-4 3q-5 5 -7 29q-1 28 -1 62t-4 67q-4 36 -23.5 59.5t-54.5 23.5q-18 12 -41 12h-1q-48 -4 -75 -30q-28 -25 -36 -61q-7 -34 -8 -69q-1 -33 -3 -62q-1 -26 -8 -33
l-3 -3v-4q0 -17 19.5 -24.5t54.5 -11.5q-6 -12 -22 -19q-20 -9 -47 -20q-30 -11 -47 -26l-8 -8l9 -7q15 -14 36 -28q22 -14 62 -30q40 -15 77 -15q56 0 104 21.5t71 49.5l7 8l-8 6q-16 15 -46 27q-27 11 -48 21q-15 8 -21 20z" />
    <glyph glyph-name="uniF10D" unicode="&#xf10d;" 
d="M512 264h-129l-10 41h-235l-10 -52h-128v72h512v-61zM136 297l-20 3l-36 -193q-8 -32 9 -55.5t52 -23.5h230q35 0 52 23t9 56l-36 193l-20 -3l36 -194q6 -26 -4.5 -40t-36.5 -14h-230q-26 0 -36.5 14.5t-4.5 39.5zM357 45h-86v260h54z" />
    <glyph glyph-name="uniF10E" unicode="&#xf10e;" 
d="M233 374l-4 21q-48 -9 -77 -44.5t-29 -86.5q0 -46 -8.5 -77.5t-20.5 -46t-24 -23.5t-20.5 -17.5t-8.5 -20.5q0 -20 17.5 -33t51 -18.5t66.5 -7.5t80 -2t80 2t66.5 7.5t51 18.5t17.5 33q0 12 -8.5 20.5t-20.5 17.5t-24 23.5t-20.5 46t-8.5 77.5q0 51 -29.5 87t-78.5 44
l-3 -20q41 -7 66 -37t25 -74q0 -46 8.5 -81.5t20.5 -53.5t24 -29t20.5 -15.5t8.5 -5.5q0 -19 -52.5 -30t-142.5 -11t-142.5 11t-52.5 30q0 1 8.5 5.5t20.5 15.5t24 29t20.5 53.5t8.5 81.5q0 44 24.5 73.5t65.5 36.5zM236 407q0 12 4 16.5t16 4.5t16 -4.5t4 -16.5t-4 -16
t-16 -4t-16 4t-4 16zM215 407q0 -19 11 -30t30 -11t30 11t11 30t-11 30t-30 11t-30 -11t-11 -30zM307 32l-17 -12q7 -10 7 -23q0 -17 -12 -29t-29 -12t-29 12t-12 29q0 12 6 22l-17 11q-9 -15 -9 -33q0 -25 18 -43t43 -18t43 18t18 43q0 19 -10 35z" />
    <glyph glyph-name="uniF10F" unicode="&#xf10f;" 
d="M379 49v82h82v-82h-82zM358 28h123v123h-123v-123zM51 49v82h82v-82h-82zM31 28h123v123h-123v-123zM215 264v82h82v-82h-82zM195 243h122v123h-122v-123zM314 305l-7 -19q46 -16 74.5 -56t28.5 -89h20q0 56 -32.5 101t-83.5 63zM82 141h20q0 49 28 88t73 56l-8 19
q-50 -19 -81.5 -63.5t-31.5 -99.5zM307 315v-21h185v21h-185zM20 315v-21h185v21h-185zM451 304.5q0 30.5 30.5 30.5t30.5 -30.5t-30.5 -30.5t-30.5 30.5zM0 304.5q0 30.5 30.5 30.5t30.5 -30.5t-30.5 -30.5t-30.5 30.5z" />
    <glyph glyph-name="uniF110" unicode="&#xf110;" 
d="M307 212zM317 212h-20v-227l-82 49v178h-20v-190l122 -73v263zM317 212h-20v-227l-82 49v178h-20v-190l122 -73v263zM471 387h10v41h-450v-46l169 -180h112l166 178zM471 387q-3 2 -13 -5t-25 -21t-31.5 -30.5t-33.5 -35.5t-30.5 -33.5t-23.5 -26t-11 -12.5h-94l-158 168
v16h410q0 -3 5 -8t5 -12z" />
    <glyph glyph-name="uniF111" unicode="&#xf111;" 
d="M461 233h-21v-277h-368v277h-21v-297h410v297zM184 -54h21v205h102v-205h21v226h-144v-226zM358 397h62v-95l-21 21v53h-20v-31l-21 21v31zM4 189l15 -14l237 247l237 -247l15 14l-252 263z" />
    <glyph glyph-name="uniF112" unicode="&#xf112;" 
d="M420 376h-21v-82h-82v-20h103v102zM440 192h-20q0 -68 -48 -116t-116 -48t-116 48t-48 116t48 116t116 48q73 0 122 -54q9 -10 16 -22l17 12q-8 12 -18 23q-55 61 -137 61q-76 0 -130 -54t-54 -130t54 -130t130 -54t130 54t54 130z" />
    <glyph glyph-name="uniF113" unicode="&#xf113;" 
d="M28 130q0 -69 49 -118t118 -49t118 49t49 118t-49 118t-118 49t-118 -49t-49 -118zM11 130q0 76 54 130t130 54t130 -54t54 -130t-54 -130t-130 -54t-130 54t-54 130zM484 256l15 15l-164 164l-15 -15zM316 266l14 -14l169 168l-15 15z" />
    <glyph glyph-name="uniF114" unicode="&#xf114;" 
d="M41 18v-21h184h11h10v63.2383q4.951 -0.2383 10 -0.2383q5.04901 0 10 0.2383v-63.2383h10h11h184v21h-184v44.3894q56.359 8.9696 99 51.6106q54 54 54 130t-54 130t-130 54t-130 -54t-54 -130t54 -130q42.641 -42.641 99 -51.6106v-44.3894h-184zM41 -44v-20h430v20
h-430zM94 243q0 67 48 115t115 48t115 -48t48 -115t-48 -115t-115 -48t-115 48t-48 115zM224 243q0 13 9.5 22.5t22.5 9.5q3.81601 0 7.32999 -0.819l94.67 71.819q-48.863 -66.575 -70.865 -95.472q0.86499 -3.605 0.86499 -7.528q0 -13 -9.5 -22.5t-22.5 -9.5t-22.5 9.5
t-9.5 22.5z" />
    <glyph glyph-name="uniF115" unicode="&#xf115;" 
d="M297 223v20h-102v103h-21v-123h123zM0 -64h317v301l-128 129h-189v-430zM297 -44h-277v390h160l117 -117v-273zM492 305v20h-103v103h-20v-123h123zM383 448l129 -129v-301h-174v20h154v273l-117 117h-160v-62l-20 21v61h188z" />
    <glyph glyph-name="uniF116" unicode="&#xf116;" 
d="M505 -19l-7 19q-7 -2 -15 -2q-31 0 -51 15l-6 5l-6 -5q-20 -15 -51 -15t-50 15l-6 5l-7 -5q-19 -15 -50 -15t-50 15l-7 5l-6 -5q-19 -15 -50 -15t-51 15l-6 5l-6 -5q-20 -15 -51 -15q-8 0 -17 1l-3 -20q10 -1 20 -1q32 0 57 15q24 -15 56.5 -15t56.5 15q25 -15 57 -15
t57 15q24 -15 56.5 -15t56.5 15q25 -15 57 -15q12 0 22 3zM505 -60l-7 20q-7 -3 -15 -3q-31 0 -51 15l-6 5l-6 -5q-20 -15 -51 -15t-50 15l-6 5l-7 -5q-19 -15 -50 -15t-50 15l-7 5l-6 -5q-19 -15 -50 -15t-51 15l-6 5l-6 -5q-20 -15 -51 -15q-8 0 -17 1l-3 -20q10 -1 20 -1
q32 0 57 15q24 -15 56.5 -15t56.5 15q25 -15 57 -15t57 15q24 -15 56.5 -15t56.5 15q25 -15 57 -15q12 0 22 3zM374 0l12 -16q2 1 16 11.5l18 13.5t16.5 13.5t18 15.5t15.5 15t15.5 17.5t11.5 17t10 18.5q7 12 1.5 23.5t-23.5 11.5h-454q-14 0 -22.5 -9.5t-8.5 -21.5
q0 -31 28 -66.5t56 -48.5l9 18q-22 11 -47.5 42.5t-25.5 54.5q0 10 11 10h454h6q-1 -3 -3 -6q-8 -20 -30.5 -43.5t-36.5 -34.5t-47 -36zM276 361q0 19 8.5 27.5t28 8.5t27.5 -8.5t8 -27.5t-8 -27.5t-27.5 -8.5t-28 8.5t-8.5 27.5zM256 361q0 -27 15 -41.5t41.5 -14.5
t41.5 14.5t15 41.5t-15 41.5t-41.5 14.5t-41.5 -14.5t-15 -41.5zM239 139l17 -11l47 75q87 -34 94 -38q7 -6 24.5 -4t25.5 18q7 15 0 28.5t-20 19.5q-150 71 -168 80q-7 0 -17.5 -0.5t-31.5 -7.5t-29 -19l-88 -144l17 -11l89 144q21 36 51 19v0q161 -76 168 -80
q16 -7 10 -21q-5 -11 -23 -3q-7 3 -102 42l-8 3zM206 5l14 -15l190 176l-14 15z" />
    <glyph glyph-name="uniF117" unicode="&#xf117;" 
d="M443 208l15 -14q30 29 33 71l1 13l-13 -2q-9 -2 -18 -2q-38 0 -65 27t-27 65v21l-12 -3q-29 -5 -51 -24t-32 -46l19 -7q15 38 55 54q3 -44 35 -76t78 -32q4 0 8 1q-7 -28 -26 -46zM133 376h-20v-41h20v41zM102 366v-20h41v20h-41zM51 253h-20v-20h20v20zM31 253v-20h20
v20h-20zM369 192q29 0 50 -21t21 -50.5t-21 -50.5t-50 -21h-215q-22 0 -37 15t-15 36t15 36t37 15h3h12l-3 12q-2 10 -2 19q0 34 24 58t58 24q30 0 53 -20t28 -50l2 -13l12 5q13 6 28 6zM369 212q-11 0 -25 -3q-10 34 -36.5 54.5t-61.5 20.5q-43 0 -73 -30t-30 -72
q0 -4 1 -11q-28 -5 -45 -24.5t-17 -46.5q0 -30 21 -51t51 -21h215q38 0 65 27t27 65t-27 65t-65 27z" />
    <glyph glyph-name="uniF118" unicode="&#xf118;" 
d="M167 353l14 -15l75 75l75 -75l14 15l-89 89zM246 120h20v304h-20v-304zM174 264v20h-102v-348h368v348h-102v-20h82v-308h-328v308h82z" />
    <glyph glyph-name="uniF119" unicode="&#xf119;" 
d="M257 385l3 -21q13 2 27 2q85 0 145 -60t60 -145t-60 -145t-145 -60t-145 60t-60 145q0 15 2 29l-20 3q-3 -16 -3 -32q0 -93 66 -159t159.5 -66t159.5 66t66 159.5t-66 159.5t-159 66q-15 0 -30 -2zM0 212h236v236h-11q-93 0 -159 -66t-66 -159v-11zM215 233h-194
q4 81 60 135.5t134 58.5v-194z" />
    <glyph glyph-name="uniF11A" unicode="&#xf11a;" 
d="M471 223v-62h-31v-51q0 -13 -9 -22t-21 -9h-328q-13 0 -22 9t-9 22v164q0 13 9 22t22 9h328q12 0 21 -9t9 -22v-51h31zM492 243h-31v31q0 21 -15 36t-36 15h-328q-21 0 -36 -15t-15 -36v-164q0 -21 15 -36t36 -15h328q21 0 36 15t15 36v31h31v102zM92 274h-20v-164h20
v164zM133 274h-20v-164h20v164z" />
    <glyph glyph-name="uniF11B" unicode="&#xf11b;" 
d="M307 116v86h-10q-191 0 -266 -118q7 28 18 52.5t32 53t48.5 48.5t71 33t96.5 13h10v86l168 -127zM287 75l221 168l-221 168v-106q-61 -2 -109.5 -20t-78 -45t-50.5 -59.5t-30 -65t-14 -59t-5 -42.5v-17h20q1 3 2 9.5t7.5 25.5t16.5 36t30.5 38t47 36.5t69 26.5t94.5 13
v-107z" />
    <glyph glyph-name="uniF11C" unicode="&#xf11c;" 
d="M62 241q0 -63 44 -107t107 -44t107 44t44 107t-44 107t-107 44t-107 -44t-44 -107zM41 241q0 71 50.5 121.5t121.5 50.5t121.5 -50.5t50.5 -121.5t-50.5 -121.5t-121.5 -50.5t-121.5 50.5t-50.5 121.5zM345 132l-29 -29l135 -135l29 29zM133 253v-20h164v20h-164z" />
    <glyph glyph-name="uniF11D" unicode="&#xf11d;" 
d="M246 346h20v81q96 -5 161 -72.5t65 -162.5q0 -98 -69 -167t-167 -69t-167 69t-69 167t69 166l-14 15q-75 -75 -75 -181t75 -181t181 -75t181 75t75 181t-75 181t-181 75h-10v-102zM278 170q-9 -9 -22 -9t-22 9q-5 6 -31.5 43.5t-50.5 72.5l-24 34q138 -94 150 -106
q9 -9 9 -22t-9 -22z" />
    <glyph glyph-name="uniF11E" unicode="&#xf11e;" 
d="M389 253.5q0 10.5 10.5 10.5t10.5 -10.5t-10.5 -10.5t-10.5 10.5zM328 253.5q0 10.5 10 10.5t10 -10.5t-10 -10.5t-10 10.5zM297 284q0 10 10 10t10 -10t-10 -10t-10 10zM266 253.5q0 10.5 10.5 10.5t10.5 -10.5t-10.5 -10.5t-10.5 10.5zM205 253.5q0 10.5 10 10.5
t10 -10.5t-10 -10.5t-10 10.5zM389 315q0 10 10.5 10t10.5 -10t-10.5 -10t-10.5 10zM328 315q0 10 10 10t10 -10t-10 -10t-10 10zM358 284q0 10 10.5 10t10.5 -10t-10.5 -10t-10.5 10zM17 202l434 211v-211h-434zM106 161h324v-157zM451 182h-434l434 -211v211z
M236.118 286.051l-72.284 -35.027q-1.155 -8.024 -10.334 -8.024q-2.73399 0 -4.757 0.712006l-28.102 -13.617q2.239 -2.485 2.353 -7.095h51.012q0.247009 10 10.494 10t10.494 -10h41.012q0.235001 10 9.994 10t9.994 -10h41.012q0.234985 10 9.99399 10t9.99399 -10
h41.012q0.246979 10 10.494 10t10.494 -10h41.012q0.234985 10 9.99399 10v41q-10 0 -10 10t10 10v41q-10 0 -10 10.5t10 10.5v24l-54.081 -26.206q3.08099 -2.60699 3.08099 -8.29401q0 -10.5 -10.5 -10.5q-10.305 0 -10.496 10.113l-71.766 -34.776
q-2.06702 -5.33701 -9.73801 -5.33701q-0.621002 0 -1.20499 0.0350037l-24.43 -11.838q5.13499 -2.03101 5.13499 -9.19699q0 -10 -10 -10t-10 10q0 1.08401 0.117996 2.05099z" />
    <glyph glyph-name="uniF11F" unicode="&#xf11f;" 
d="M133 315q51 51 116 76.5t124 25.5q61 0 84 -24q16 -16 21 -52.5t-1.5 -82t-32 -97.5t-65.5 -92q-51 -51 -116 -76.5t-124 -25.5q-60 0 -84 24q-16 16 -21 52.5t1.5 82t32 97.5t65.5 92zM119 329q-56 -55 -84.5 -129.5t-25.5 -135t31 -88.5q30 -30 99 -30q63 0 132 27.5
t123 81.5q55 55 83.5 129.5t25.5 135t-31 88.5q-30 30 -99 30q-63 0 -131.5 -27.5t-122.5 -81.5zM468 390l-14 14l-93 -92l15 -15zM151 72l-15 15l-92 -93l14 -14zM345 267l-14 14l-164 -164l14 -14zM346 190l15 14l-93 93l-14 -15zM295 139l14 14l-92 92l-14 -14zM244 87
l14 15l-92 92l-15 -14z" />
    <glyph glyph-name="uniF120" unicode="&#xf120;" 
d="M230.042 217.958l155.043 103.117l-103.116 -155.033q-3.47699 3.476 -6.95398 6.95299l-113.529 -75.5096l75.509 113.52q-3.47699 3.476 -6.95299 6.95299zM223.085 224.915l-130.772 -196.6l196.612 130.77l130.732 196.575zM0 192q0 106 75 181t181 75t181 -75
t75 -181t-75 -181t-181 -75t-181 75t-75 181zM275.015 172.995l-38.02 38.01l113.507 75.495zM21.2356 202.24h9.4841v-20.48h-9.561q3.1507 -91.0694 68.8413 -156.76q65.33 -65.3297 155.76 -68.8048v10.5245h20.48v-10.5245q90.43 3.4751 155.76 68.8048
q65.691 65.6906 68.841 156.76h-9.561v20.48h9.48401q-3.79602 89.792 -68.764 154.76q-65.33 65.33 -155.76 68.805v-8.52499h-20.48v8.52499q-90.43 -3.47501 -155.76 -68.805q-64.9682 -64.968 -68.7644 -154.76z" />
    <glyph glyph-name="uniF121" unicode="&#xf121;" 
d="M20 69v287h472v-287h-472zM0 49h512v327h-512v-327zM399 8v20h-286v-20h286z" />
    <glyph glyph-name="uniF122" unicode="&#xf122;" 
d="M22 192q0 -97 68.5 -165.5t165.5 -68.5t165.5 68.5t68.5 165.5t-68.5 165.5t-165.5 68.5t-165.5 -68.5t-68.5 -165.5zM2 192q0 105 74.5 179.5t179.5 74.5t179.5 -74.5t74.5 -179.5t-74.5 -179.5t-179.5 -74.5t-179.5 74.5t-74.5 179.5zM243 282q-3 0 -3 3v27q0 4 3 4h25
q4 0 4 -4v-27q0 -3 -4 -3h-25zM244 66q-3 0 -3 4v168q0 4 3 4h24q3 0 3 -4v-168q0 -4 -3 -4h-24z" />
    <glyph glyph-name="uniF123" unicode="&#xf123;" 
d="M471 223v-62h-31v-51q0 -13 -9 -22t-21 -9h-328q-13 0 -22 9t-9 22v164q0 13 9 22t22 9h328q12 0 21 -9t9 -22v-51h31zM492 243h-31v31q0 21 -15 36t-36 15h-328q-21 0 -36 -15t-15 -36v-164q0 -21 15 -36t36 -15h328q21 0 36 15t15 36v31h31v102zM92 274h-20v-164h20
v164zM133 274h-20v-164h20v164zM174 274h-20v-164h20v164zM215 274h-20v-164h20v164zM256 274h-20v-164h20v164zM297 274h-21v-164h21v164zM338 274h-21v-164h21v164zM379 274h-21v-164h21v164zM420 274h-21v-164h21v164z" />
    <glyph glyph-name="uniF124" unicode="&#xf124;" 
d="M308 69q0 -19 10.5 -29.5t29.5 -10.5t30 10.5t11 29.5t-11 30t-30 11t-29.5 -11t-10.5 -30zM327 69q0 12 4.5 16.5t16.5 4.5t16.5 -4.5t4.5 -16.5t-4.5 -16.5t-16.5 -4.5t-16.5 4.5t-4.5 16.5zM123 69q0 -19 11 -29.5t30 -10.5t29.5 10.5t10.5 29.5t-10.5 30t-29.5 11
t-30 -11t-11 -30zM143 69q0 12 4.5 16.5t16.5 4.5t16.5 -4.5t4.5 -16.5t-4.5 -16.5t-16.5 -4.5t-16.5 4.5t-4.5 16.5zM348 407h21q0 41 -113 41t-113 -41h21q0 4 8 8.5t30.5 8.5q1.741 0.309998 3.533 0.595001l8.17099 -50.659q-47.72 -4.974 -82.704 -21.936
q-49.5 -24 -49.5 -58v-238q0 -29 21 -49q13.569 -12.9227 30.895 -17.4956l-41.895 -35.5044l13 -16l57.82 49h186.36l57.82 -49l13 16l-41.895 35.5044q17.326 4.57287 30.895 17.4956q21 20 21 49v238q0 34 -49.5 58q-34.984 16.962 -82.704 21.936l8.17102 50.659
q1.79199 -0.285004 3.53299 -0.595001q22.5 -4 30.5 -8.5t8 -8.5zM143 255q0 9 11 9h41h122h41q11 0 11 -9v-85q0 -9 -11 -9h-204q-11 0 -11 9v85zM123 255v-85q0 -13 9 -21t22 -8h204q13 0 22 8t9 21v85q0 12 -9 20.5t-22 8.5h-20v21q0 8 -6 14t-15 6h-122q-9 0 -15 -6
t-6 -14v-21h-20q-13 0 -22 -8.5t-9 -20.5zM102 294q0 12 16 25.5t53 25t85 11.5t85 -11.5t53 -25t16 -25.5v-238q0 -20 -15 -34t-37 -14h-204q-22 0 -37 14t-15 34v238zM285.84 426.926l-8.43201 -51.44q-10.431 0.514008 -21.408 0.514008q-10.977 0 -21.408 -0.514008
l-8.43199 51.44q13.779 1.07401 29.84 1.07401t29.84 -1.07401zM194 284v21h1h122h1v-21h-1h-122h-1z" />
    <glyph glyph-name="uniF125" unicode="&#xf125;" 
d="M389.12 335.36q20.48 0 20.48 -30.72v-204.8q0 -11.3842 -1.573 -23.5555q-1.573 -12.1712 -8.729 -31.1414q-7.15701 -18.9702 -19.114 -33.0912q-11.956 -14.121 -35.61 -24.6064q-23.654 -10.4853 -55.334 -10.4853q-52.377 0 -77.36 13.8208
q-24.983 13.8209 -47.492 44.3022q-11.155 15.1146 -29.024 46.1131q-17.868 30.9989 -30.159 54.4399l-12.2909 23.441l-0.222702 0.434006l-0.263702 0.410995q-5.5141 8.59801 -3.7475 17.981q1.7031 9.047 8.9936 13.667q6.9502 4.62299 16.6232 2.09799
q9.673 -2.524 15.303 -11.201l54.72 -72.072v246.235q0 9.13699 6.14799 14.414q6.14799 5.276 14.332 5.276q8.20799 0 14.344 -5.358q6.136 -5.35901 6.136 -15.122v-133.12q2.817 -8.72 10.102 -8.72t10.378 8.72v133.12v30.72q0 8.01001 5.515 14.245
q5.836 6.59601 14.965 6.23502q19.557 -0.695007 20.426 -17.036q0.21701 -4.01099 0.0550232 -23.924l-0.0550232 -65.079q0.149017 -0.408997 0.0550232 -78.281q0.000976562 -10.777 11.208 -10.775q9.27103 0.00299072 9.27103 10.775v132.354
q0.279999 5.673 0.279999 10.595h-0.279999v0.41098q0 20.48 20.48 20.48q10.942 0 15.711 -6.25198q4.76801 -6.25101 4.767 -24.468l-0.156982 -142.507q1.29599 -9.51799 10.666 -9.33299q9.302 0.223007 9.97302 8.48v92.16q0 30.72 20.48 30.72zM225.871 391.212
q-11.751 5.58798 -21.071 5.58798q-15.524 0 -28.242 -10.817q-12.718 -10.817 -12.718 -29.353v-185.425l-17.267 22.727q-9.92 15.291 -27.183 19.771q-17.264 4.481 -32.5834 -4.77301q-15.0038 -9.51099 -17.7996 -27.613q-2.79591 -18.103 4.75369 -29.963
q47.5563 -92.4006 74.1523 -128.437q24.26 -32.8518 54.618 -49.6442q30.358 -16.7923 86.709 -16.7923q36.72 0 64.329 12.5136q27.608 12.5137 41.627 29.389q14.018 16.8753 22.512 39.0123q8.49298 22.1371 10.433 36.2363q1.939 14.0991 1.939 26.2081v204.8
q0 51.2 -40.96 51.2q-11.628 0 -20.48 -4.862v4.862q0 23.737 -10.475 37.469q-10.475 13.731 -30.485 13.731q-3.884 0.127991 -19.055 -3.66501q-0.350006 -0.197998 -0.625 -0.375l-3.79599 -1.082q-10.207 25.602 -37.964 25.602q-16.134 0 -26.849 -9.84299
q-10.715 -9.84299 -13.354 -23.346z" />
    <glyph glyph-name="uniF126" unicode="&#xf126;" 
d="M62 73q5 -51 11 -78q2 -11 10 -19.5t21 -8.5h328q18 0 28.5 10.5t10.5 27.5v265q0 26 -28 35h-2h-2q-78 -8 -105 -11q-24 -2 -7 26q18 28 18 46q0 30 -21.5 51t-51.5 21t-51.5 -21t-21.5 -51q0 -22 17 -46q11 -18 8.5 -22.5t-14.5 -3.5l-105 11q-30 -17 -32 -34
q-5 -20 -11 -106l-1 -5l1 -3q7 -36 59 1q19 14 36 14q22 0 37.5 -15.5t15.5 -36.5t-15.5 -36t-37.5 -15q-18 0 -37 15q-45 35 -57 6q-3 -8 -1 -17zM451 270v-265q0 -18 -19 -18h-328q-8 0 -11 13q-6 26 -11 76v0v6q8 0 25 -14q25 -19 50 -19q30 0 51.5 21t21.5 50.5
t-21.5 50.5t-51.5 21q-23 0 -48 -18q-15 -10 -27 -10q3 39 6 65.5t4 32.5l1 6v1q1 11 3 14t6 2h1q86 -10 105 -11q25 -2 33.5 15.5t-8.5 41.5q-14 20 -14 35q0 21 15.5 36t37.5 15t37.5 -15t15.5 -36q0 -9 -2.5 -14t-12.5 -21q-15 -24 -6.5 -42t32.5 -15q26 3 103 11
q12 -5 12 -15z" />
    <glyph glyph-name="uniF127" unicode="&#xf127;" 
d="M215 192q0 -19 11 -30t30 -11t30 11t11 30t-11 30t-30 11t-30 -11t-11 -30zM236 192q0 12 4 16t16 4t16 -4t4 -16t-4 -16t-16 -4t-16 4t-4 16zM327 172l85.199 -57.746q-5.914 -11.695 -13.792 -22.5822l-89.407 48.3282l-6 -4q-10 -9 -22 -13l-6 -3
q-2.866 -50.7775 -5.733 -101.555q-6.54199 -0.444901 -13.267 -0.444901q-6.21001 0 -12.263 0.3794l-5.737 101.621l-6 2q-13 5 -24 14l-5 5l-90.179 -48.2535q-7.668 10.7685 -13.4281 22.3215l84.6071 56.932l-1 7q-1 8 -1 13t1 13l1 7l-84.7046 56.736
q5.8036 11.68 13.5546 22.558l90.15 -48.294l5 5q11 9 24 14l6 2l5.737 101.621q6.05299 0.378998 12.263 0.378998q6.72501 0 13.267 -0.445007q2.867 -50.777 5.733 -101.555l6 -3q12 -4 22 -13l6 -4l89.253 48.541q7.81201 -10.761 13.701 -22.314l-84.954 -58.227l2 -6
q1 -8 1 -14t-1 -14zM350 203l23.864 16.215q3.13599 -13.159 3.13599 -27.215t-3.13599 -27.215l-23.864 16.215q1 8 1 11t-1 11zM291 353l89 -47l-24.362 -13.417q-26.571 26.251 -63.312 35.552zM295 278l-1.53601 28.791q24.281 -7.29797 43.358 -24.57l-25.822 -14.221
q-8 6 -16 10zM268 388q0.0379944 -0.666992 0.0750122 -1.33499q-5.97202 0.334991 -12.075 0.334991q-5.591 0 -11.072 -0.281006q0.0360107 0.640991 0.0720062 1.28101q-1.28999 -0.712006 -2.58099 -1.42401q-71.359 -4.51599 -123.919 -57.076
q-10.584 -10.584 -19.2191 -21.929q-4.1404 -2.28601 -8.2809 -4.57101q1.7774 -0.951996 3.5547 -1.90399q-7.0474 -10.078 -12.6147 -20.735l-3.94 2.63901l-0.0588989 -10.782q-16.9411 -36.794 -16.9411 -80.218q0 -42.299 16.0748 -78.308l-0.0747986 -13.692
l5.0619 3.406q5.50871 -10.508 12.4582 -20.4522l-5.5201 -2.9538l12.912 -6.9524q7.59 -9.5493 16.588 -18.5476q52.533 -52.5327 123.846 -57.0709l2.65401 -1.42911q-0.0359955 0.64043 -0.0720062 1.28086q5.481 -0.28086 11.072 -0.28086q6.103 0 12.075 0.33465
q-0.0370178 -0.66732 -0.0750122 -1.33465l2.71301 1.4992q70.645 4.85843 122.787 57.0008q10.217 10.2171 18.619 21.1445l7.88101 4.3555l-3.332 1.801q34.332 48.382 34.332 110.199q0 61.981 -34.515 110.457q3.25702 1.771 6.51501 3.543l-15.583 8.24399
q-6.47699 7.81601 -13.917 15.256q-52.091 52.091 -122.648 56.991q-1.42599 0.755005 -2.85199 1.509zM134 303l89 50l-1.632 -24.475q-38.231 -9.384 -65.872 -36.924zM200 268l-25.441 13.492q19.987 18.237 45.384 25.653l-1.94299 -29.145q-9 -4 -18 -10zM98 139v106
l21.795 -14.643q-4.795 -18.494 -4.795 -38.357t4.795 -38.357zM162 182l-23.924 -16.074q-3.076 12.817 -3.076 26.074t3.076 26.074l23.924 -16.074q-1 -7 -1 -10t1 -10zM223 31l-90 49l22.699 12.1965q28.08 -27.9328 65.72 -37.4795q0.789993 -11.8585 1.58099 -23.717z
M218 106l1.976 -29.6383q-25.508 8.0108 -45.295 26.0343l25.319 13.604q9 -6 18 -10zM75 373q-75 -75 -75 -181t75 -181t181 -75t181 75t75 181t-75 181t-181 75t-181 -75zM89 25q-69 69 -69 167t69 167t167 69t167 -69t69 -167t-69 -167t-167 -69t-167 69z
M420.311 133.225l-28.832 19.59q5.521 19.248 5.521 39.185t-5.521 39.185l28.832 19.59q9.689 -27.392 9.689 -58.775t-9.689 -58.775zM292.326 55.8648q36.847 9.3285 63.465 35.7036l21.209 -11.5684l-86 -49zM293.464 77.2089l1.53601 28.7911q8 4 16 10l25.916 -14.136
q-19.111 -17.3393 -43.452 -24.6551z" />
    <glyph glyph-name="uniF128" unicode="&#xf128;" 
d="M28 90l228 227l228 -227l-22 -22l-206 207l-206 -207z" />
    <glyph glyph-name="uniF129" unicode="&#xf129;" 
d="M113 376h-21v-102h103v20h-82v82zM420 192h20q0 76 -54 130t-130 54q-82 0 -137 -61q-10 -11 -18 -23l17 -12q7 12 16 22q49 54 122 54q68 0 116 -48t48 -116zM256 18v-21q11 0 22 2l-3 20q-9 -1 -19 -1zM318 30l7 -19q41 16 70 49t40 76l-20 5q-10 -38 -36 -67.5
t-61 -43.5zM419 162l20 -2q1 11 1 22h-20q0 -10 -1 -20zM92 182h-20v-11l20 1v10zM101 130l-20 -7q16 -47 53.5 -80t86.5 -42l4 20q-44 8 -77 37.5t-47 71.5zM246 18l-1 -20q5 -1 11 -1v21h-10z" />
    <glyph glyph-name="uniF12A" unicode="&#xf12a;" 
d="M0 192q0 20 20.5 20t20.5 -20t-20.5 -20t-20.5 20zM133 253.5q0 20.5 20.5 20.5t20.5 -20.5t-20.5 -20.5t-20.5 20.5zM236 335.5q0 20.5 20 20.5t20 -20.5t-20 -20.5t-20 20.5zM338 273.5q0 20.5 20.5 20.5t20.5 -20.5t-20.5 -20.5t-20.5 20.5zM471 396.5
q0 20.5 20.5 20.5t20.5 -20.5t-20.5 -20.5t-20.5 20.5zM0 48.5q0 20.5 20.5 20.5t20.5 -20.5t-20.5 -20.5t-20.5 20.5zM133 28.5q0 20.5 20.5 20.5t20.5 -20.5t-20.5 -20.5t-20.5 20.5zM236 110.5q0 20.5 20 20.5t20 -20.5t-20 -20.5t-20 20.5zM338 7.5q0 20.5 20.5 20.5
t20.5 -20.5t-20.5 -20.5t-20.5 20.5zM471 130.5q0 20.5 20.5 20.5t20.5 -20.5t-20.5 -20.5t-20.5 20.5zM16 201l9 -18l134 62l98 78l103 -62l138 128l-13 15l-128 -117l-102 61l-107 -86zM22 59l-3 -20l137 -22l99 79l103 -103l140 130l-13 15l-126 -116l-102 102l-106 -85z
" />
    <glyph glyph-name="uniF12B" unicode="&#xf12b;" 
d="M20 -23q0 -19 11 -30t30 -11t30 11q7.9242 7.9242 10.14 20h12.72q2.216 -12.0758 10.14 -20q11 -11 30 -11t30 11t11 30q0 11.4536 -3.99699 20h129.994q-3.99701 -8.5464 -3.99701 -20q0 -19 11 -30t30 -11t30 11q7.92401 7.9242 10.14 20h12.72
q2.216 -12.0758 10.14 -20q11 -11 30 -11t30 11t11 30q0 11.6997 -4.17099 20.3659q8.935 1.39772 15.671 8.13406q8.5 8.5 8.5 20.5v140q0 28 -19.5 47.5t-47.5 19.5h-378q-28 0 -47.5 -19.5t-19.5 -47.5v-140q0 -12 8.5 -20.5q6.7363 -6.73634 15.6709 -8.13406
q-4.1709 -8.66624 -4.1709 -20.3659zM41 -23q0 12 4.5 16t16 4t16 -4q2.25 -2 3.375 -6h-19.875v-20h19.9087q-1.1247 -4.216 -3.4087 -6.5q-4.5 -4.5 -16 -4.5t-16 4.5t-4.5 16.5zM338 -23q0 12 4.5 16t16 4t16 -4q2.25 -2 3.375 -6h-19.875v-20h19.909
q-1.125 -4.216 -3.409 -6.5q-4.5 -4.5 -16 -4.5t-16 4.5t-4.5 16.5zM445 212q19 0 33 -13.5t14 -32.5v-140q0 -8 -9 -8h-32h-93h-204h-93h-32q-9 0 -9 8v140q0 19 14 32.5t33 13.5h378zM101.14 -13q-0.993996 5.41784 -3.1373 10h18.9943q-2.14301 -4.58216 -3.137 -10
h-12.72zM134.125 -13q1.125 4 3.375 6q4.5 4 16 4t16 -4t4.5 -16t-4.5 -16.5t-16 -4.5t-16 4.5q-2.284 2.284 -3.409 6.5h19.909v20h-19.875zM398.14 -13q-0.994019 5.41784 -3.13702 10h18.994q-2.14301 -4.58216 -3.13702 -10h-12.72zM431.125 -13q1.125 4 3.375 6
q4.5 4 16 4t16 -4t4.5 -16t-4.5 -16.5t-16 -4.5t-16 4.5q-2.284 2.284 -3.409 6.5h19.909v20h-19.875zM451 163v-55q0 -8 -8 -8h-36q-8 0 -8 8v55q0 9 8 9h36q8 0 8 -9zM463 87.5q8 8.5 8 20.5v55q0 12 -8 20.5t-20 8.5h-36q-12 0 -20 -8.5t-8 -20.5v-55q0 -12 8 -20.5
t20 -8.5h36q12 0 20 8.5zM338 163v-55q0 -8 -8 -8h-36q-7 0 -7 8v55q0 9 7 9h36q8 0 8 -9zM350 87.5q8 8.5 8 20.5v55q0 12 -8 20.5t-20 8.5h-36q-11 0 -19.5 -8.5t-8.5 -20.5v-55q0 -12 8.5 -20.5t19.5 -8.5h36q12 0 20 8.5zM225 163v-55q0 -8 -7 -8h-36q-8 0 -8 8v55
q0 9 8 9h36q7 0 7 -9zM237.5 87.5q8.5 8.5 8.5 20.5v55q0 12 -8.5 20.5t-19.5 8.5h-36q-12 0 -20 -8.5t-8 -20.5v-55q0 -12 8 -20.5t20 -8.5h36q11 0 19.5 8.5zM113 163v-55q0 -8 -8 -8h-36q-8 0 -8 8v55q0 9 8 9h36q8 0 8 -9zM125 87.5q8 8.5 8 20.5v55q0 12 -8 20.5
t-20 8.5h-36q-12 0 -20 -8.5t-8 -20.5v-55q0 -12 8 -20.5t20 -8.5h36q12 0 20 8.5z" />
    <glyph glyph-name="uniF12C" unicode="&#xf12c;" 
d="M4 243l221 -168v107q52 -2 94.5 -13t69 -26.5t47 -36.5t30.5 -38t16.5 -36t7.5 -25.5t2 -9.5h20v17t-5 42.5t-14 60t-30 63.5t-50.5 60.5t-78 44t-109.5 20.5v106zM205 116l-168 127l168 127v-86h10q53 0 96.5 -13t71 -33t48.5 -48.5t32 -53t18 -52.5q-75 118 -266 118
h-10v-86z" />
    <glyph glyph-name="uniF12D" unicode="&#xf12d;" 
d="M2 192q0 105 74.5 179.5t179.5 74.5t179.5 -74.5t74.5 -179.5t-74.5 -179.5t-179.5 -74.5t-179.5 74.5t-74.5 179.5zM21 193q0 -97 69 -166t166 -69t166 69t69 166t-69 166t-166 69t-166 -69t-69 -166zM224 192q0 13 9 22q5.698 5.698 13 7.789v165.211h20v-165.863
q6.09399 -2.23099 11 -7.13699q9 -9 9 -22t-9 -22t-22 -9q-7.22701 0 -13.218 2.782l-60.782 -60.782l-14 14l60.445 60.445q-3.44501 6.51199 -3.44501 14.555z" />
    <glyph glyph-name="uniF12E" unicode="&#xf12e;" 
d="M419 274q0 67 -48 115t-115 48t-115 -48t-48 -115q0 -41 16 -90t39 -88.5t46 -73.5t39 -52l16 -19l7 -8l7 8q6 7 16.5 20t37.5 51.5t47.5 75.5t37.5 86t17 90zM401 274q0 -41 -18 -90.5t-45 -94t-46 -71.5t-36 -47q-18 21 -37 48t-46 71t-44.5 93t-17.5 91q0 60 42.5 102
t102.5 42t102.5 -42t42.5 -102zM204 263.5q0 27.5 12 40t40 12.5t40 -12.5t12 -40t-12 -40t-40 -12.5t-40 12.5t-12 40zM186 264q0 -34 18 -52.5t52 -18.5t52 18.5t18 52.5t-18 52t-52 18t-52 -18t-18 -52z" />
    <glyph glyph-name="uniF12F" unicode="&#xf12f;" 
d="M246 405h20v33h-20v-33zM143 8h-20q0 -30 21 -51t50.5 -21t50.5 21t21 51v204h-20v-204q0 -22 -15 -37t-36.5 -15t-36.5 15t-15 37zM102 233q-39 0 -70 -24q12 80 74 129t150 49q89 0 151.5 -49t72.5 -132q-35 27 -70 27q-46 0 -77 -35q-31 35 -77 35t-77 -35
q-31 35 -77 35zM102 212q44 0 68 -36l9 -13l9 13q24 36 68 36t68 -36l9 -13l9 13q24 36 68 36q18 0 36.5 -9t27.5 -19l10 -9l18 -20v27q0 99 -71.5 162t-174.5 63t-174.5 -63t-71.5 -162v-34l19 28q3 4 8 10t24 16t41 10z" />
    <glyph glyph-name="uniF130" unicode="&#xf130;" 
d="M481 335q5 0 8 -3t3 -7v-328q0 -4 -3 -7t-8 -3h-450q-5 0 -8 3t-3 7v328q0 4 3 7t8 3h450zM481 356h-450q-13 0 -22 -9t-9 -22v-328q0 -12 9 -21t22 -9h450q13 0 22 9t9 21v328q0 13 -9 22t-22 9zM20 172h-20q0 -13 9 -22t22 -9h450q13 0 22 9t9 22h-20q0 -5 -3 -8t-8 -3
h-450q-5 0 -8 3t-3 8zM317 356h21v31q0 12 -9 21t-22 9h-102q-13 0 -22 -9t-9 -21v-31h21v31q0 4 3 7t7 3h102q4 0 7 -3t3 -7v-31zM236 202.5q0 20.5 20 20.5t20 -20.5t-20 -20.5t-20 20.5z" />
    <glyph glyph-name="uniF131" unicode="&#xf131;" 
d="M440 417v-358q0 -3 -0.5 -7t-4.5 -14.5t-10.5 -18.5t-21.5 -15t-34 -7q-27 0 -45 8t-25.5 19.5t-9.5 19.5t-2 15q0 23 16.5 37t65.5 14q24 0 32.5 7t8.5 24v172q0 11 -3 14t-13 1q-11 -3 -60 -13.5t-93.5 -20.5t-47.5 -10q-9 -2 -9 -18v-258q0 -23 -19.5 -42.5
t-62.5 -19.5q-22 0 -37.5 6.5t-22 17t-9 19.5t-2.5 19q0 23 18 36.5t53 13.5q32 0 42 7.5t10 24.5v276q0 16 14 19l253 52q1 0 5 0.5t9 -4.5t5 -16z" />
    <glyph glyph-name="uniF132" unicode="&#xf132;" 
d="M369 131h-246q-26 0 -44 18t-18 43t18 43t44 18h10l14 -3l-2 14q-2 8 -2 15q0 36 25.5 61.5t61.5 25.5q33 0 57 -21t29 -52l2 -14l13 6q18 9 38 9q34 0 58 -24t24 -57.5t-24 -57.5t-58 -24zM369 110q42 0 72 30t30 72.5t-30 72.5t-72 30q-17 0 -35 -6q-10 34 -38.5 56
t-65.5 22q-44 0 -75.5 -31.5t-31.5 -76.5q0 -5 3 -6l1 1h-4q-34 0 -58 -24t-24 -58t24 -58t58 -24h246zM235 -37l18 8l-16 41l-19 -8zM211 -12l8 -19l41 17l-8 19zM142 34l19 8l-17 41l-19 -8zM119 60l8 -19l41 17l-8 19zM337 14l19 8l-17 41l-19 -8zM314 39l7 -19l41 17
l-8 19z" />
    <glyph glyph-name="uniF133" unicode="&#xf133;" 
d="M91 294h330l39 -338h-408zM73 315l-44 -379h454l-44 379h-366zM338 253h20v82q0 43 -30 73t-72 30t-72 -30t-30 -73v-82h20v82q0 34 24 58t58 24t58 -24t24 -58v-82zM328 253.5q0 20.5 20.5 20.5t20.5 -20.5t-20.5 -20.5t-20.5 20.5zM143 253.5q0 20.5 20.5 20.5
t20.5 -20.5t-20.5 -20.5t-20.5 20.5z" />
    <glyph glyph-name="uniF134" unicode="&#xf134;" 
d="M188.5 49q-8.5 -2 -15.5 3t-8.5 13t3 15t12.5 9t15.5 -2.5t9 -13t-3 -15.5t-13 -9zM250 59.5q-8 -1.5 -15.5 3t-9 12.5t3 15.5t13 9t15.5 -3t9 -13t-3 -15.5t-13 -8.5zM311.5 69.5q-8.5 -1.5 -15.5 3t-9 13t3 15.5t13 8.5t15 -3t9 -12.5t-2.5 -15.5t-13 -9zM505 -60
l-7 20q-7 -3 -15 -3q-31 0 -51 15l-6 5l-6 -5q-20 -15 -51 -15t-50 15l-6 5l-7 -5q-19 -15 -50 -15t-50 15l-7 5l-6 -5q-19 -15 -50 -15t-51 15l-6 5l-6 -5q-20 -15 -51 -15q-8 0 -17 1l-3 -20q10 -1 20 -1q32 0 57 15q24 -15 56.5 -15t56.5 15q25 -15 57 -15t57 15
q24 -15 56.5 -15t56.5 15q25 -15 57 -15q12 0 22 3zM505 -19l-7 19q-7 -2 -15 -2q-31 0 -51 15l-6 5l-6 -5q-12.126 -9.09453 -28.296 -12.675q3.16299 2.71635 6.29599 5.67503q18 17 34.5 42t27.5 42.5t27 47.5t20 39q8 14 0.5 24t-19.5 7q-37.528 -9.354 -71.231 -17.77
q0.11499 0.38501 0.230988 0.770004q-124 41 -162 35q-6 -1 -23 -2.5t-32.5 -3.5t-32 -4.5q-8.819 -1.336 -16.209 -3.101q-47.313 26.616 -50.291 28.601q-9 6 -18 6h-29q-10 0 -13 -9t3 -15q2.9144 -2.914 62.452 -55.846q-2.425 -5.291 -4.952 -11.154
q-12.0163 -27.878 -11.5572 -53.907q-23.5344 -13.0828 -40.9428 -34.093q-29 -35 -29 -62q0 -4.25669 0.495501 -7.73482q-4.1301 0.24978 -8.4955 0.73482l-3 -20q10 -1 20 -1q32 0 57 15q24 -15 56.5 -15t56.5 15q25 -15 57 -15t57 15q24 -15 56.5 -15t56.5 15
q25 -15 57 -15q12 0 22 3zM379.371 180.884q-226.653 -56.679 -255.371 -64.884q-6.821 -1.928 -13.267 -4.339q1.974 16.106 9.267 34.339q10 25 20 41q12 4 118 19q13 2 51.5 -7t69.5 -18q0.184998 -0.0579987 0.371002 -0.115997zM115.839 186.206
q-28.3018 25.01 -45.839 40.794h13q3 0 7 -3q3.3078 -2.481 36.705 -21.374q-1.626 -1.27701 -2.705 -2.62601q-3.891 -5.83701 -8.161 -13.794zM36.5572 -1.76695l3.4428 4.76695v3q0 19 25 49t64 41q32 9 361 91q-4 -7 -21.5 -38.5t-27 -47.5t-26 -40t-32 -39.5
q-14.573 -14.5733 -29.589 -22.5166q-20.776 2.85734 -34.911 14.0166l-6 5l-7 -5q-19 -15 -50 -15t-50 15l-7 5l-6 -5q-19 -15 -50 -15t-51 15l-6 5l-6 -5q-17.5071 -13.1303 -43.4428 -14.7669z" />
    <glyph glyph-name="uniF135" unicode="&#xf135;" 
d="M358 356q47 0 80 -33t33 -80q0 -37 -14.5 -70t-42 -60.5t-51 -46.5t-59 -42.5t-48.5 -33.5q-12 9 -47 32.5t-58.5 42t-51.5 46.5t-43 61.5t-15 70.5q0 47 33 80t80 33q60 0 93 -51l9 -12l9 12q33 51 93 51zM358 376q-30 0 -57.5 -13.5t-44.5 -34.5q-40 48 -102 48
q-56 0 -95 -39t-39 -94q0 -42 17.5 -80.5t47.5 -68t58 -50.5t61.5 -43t44.5 -32l7 -5l7 5q11 10 44.5 32t61.5 43t58 50.5t47.5 68t17.5 80.5q0 55 -39 94t-95 39z" />
    <glyph glyph-name="uniF136" unicode="&#xf136;" 
d="M343.5 206.5q-4.5 -4.5 -10.5 -4.5h-154q-6 0 -10.5 4.5t-4.5 11t4.5 11t10.5 4.5h154q6 0 10.5 -4.5t4.5 -11t-4.5 -11zM179 182h154q15 0 25.5 10.5t10.5 25t-10.5 25t-25.5 10.5h-154q-15 0 -25.5 -10.5t-10.5 -25t10.5 -25t25.5 -10.5zM461 294v-317h-410v317h410z
M31 294v-338h450v338h21v123h-492v-123h21zM481 315h-450v82h450v-82z" />
    <glyph glyph-name="uniF137" unicode="&#xf137;" 
d="M328 100v-21h93q38 0 64.5 27t26.5 65q0 35 -24.5 60.5t-56.5 29.5q1 3 1 6q0 56 -39.5 95t-95.5 39q-39 0 -71 -20.5t-50 -54.5q-20 12 -39 12q-29 0 -49 -19.5t-23 -47.5q-31 -12 -48 -36.5t-17 -56.5q0 -41 29 -70t70 -29h85v21h-85q-33 0 -56 23t-23 55q0 27 16.5 48
t41.5 28l7 2v10q0 22 15.5 37t36.5 15t36 -15l11 -12l6 15q12 33 41.5 54t65.5 21q47 0 80.5 -33.5t33.5 -80.5q0 -6 -1 -14l-1 -12h13q28 -1 49 -21t21 -49.5t-21 -50t-50 -20.5h-93zM314 21l-14 14l-44 -44l-44 44l-14 -14l58 -59zM266 182h-20v-202h20v202z" />
    <glyph glyph-name="uniF138" unicode="&#xf138;" 
d="M441 377l-157 -366l-70 139l-139 70zM480 416l-453 -195l172 -86l86 -172zM204 155l15 -15l235 236l-14 14z" />
    <glyph glyph-name="uniF139" unicode="&#xf139;" 
d="M20 79v308h472v-308h-472zM0 59h512v348h-512v-348zM266 438h-20v-41h20v41zM266 69h-20v-82h20v82zM263 31l-14 15l-92 -93l14 -14zM263 46l-14 -15l92 -92l14 14zM86 210l12 -16l76 57l113 -82l139 107l-12 16l-127 -97l-113 81zM266 181.5q0 20.5 20.5 20.5
t20.5 -20.5t-20.5 -20.5t-20.5 20.5zM154 263.5q0 20.5 20.5 20.5t20.5 -20.5t-20.5 -20.5t-20.5 20.5zM72 202.5q0 20.5 20.5 20.5t20.5 -20.5t-20.5 -20.5t-20.5 20.5zM399 284.5q0 20.5 20.5 20.5t20.5 -20.5t-20.5 -20.5t-20.5 20.5z" />
    <glyph glyph-name="uniF13A" unicode="&#xf13a;" 
d="M92 212v-40h328v40h-328z" />
    <glyph glyph-name="uniF13B" unicode="&#xf13b;" 
d="M28 171l-9 -18l384 -209v-1q3 -1 7 -2.5t15 -3.5t21 -1.5t22.5 6.5t21.5 18l-17 12q-9 -12 -25 -14t-24 0t-12 4l-141.495 77.0117q39.796 45.6245 69.495 82.9883q15 18 18 35.5t-4 30.5t-13.5 20.5t-14.5 13.5q-6 5 -34 25l13.359 8.713
q2.32098 -1.35699 4.64099 -2.713l5 9q0 -18 2 -26q5 -14 27 -26t72 -33q31 -13 40.5 4.5t-14.5 37.5q-11 8 -64 39q21 54 21 80q0 25 -17.5 39.5t-38.5 17.5q-25 4 -50 -3.5t-43 -21t-32.5 -28q-3.744 -3.74399 -6.989 -7.189l-96.511 56.689l-11 -18l93.824 -54.844
q-0.424011 -0.584991 -0.824005 -1.15601l-7 -11q-18 -22 -15.5 -45t12 -38t22.5 -23q8 -6 26.5 -17.5t24.5 -16.5q7 -5 7.5 -8.5t-3.5 -8.5l-58.643 -74.986zM389 391.5q0 -23.5 16.5 -40t40 -16.5t40 16.5t16.5 40t-16.5 40t-40 16.5t-40 -16.5t-16.5 -40zM410 392
q0 15 10.5 25.5t25 10.5t25 -10.5t10.5 -25.5t-10.5 -25.5t-25 -10.5t-25 10.5t-10.5 25.5zM251.364 49.4293l-29.135 15.8577q48.143 60.209 56.771 71.713q19 26 -8 47q-7 5 -25.5 16.5t-26.5 17.5q-9 6 -16 17t-9 27.5t11 33.5q3 3 8 9.5
q0.975006 1.26801 2.29401 2.85999l70.169 -41.017l-29.463 -20.343l12 -8q39 -27 45 -33q43 -33 11 -71zM304.2 280.281l-74.792 43.931q1.25499 1.35498 2.592 2.78799q14 15 29.5 26t37 18t41.5 4q15 -2 27 -12t12 -25q0 -11 -6 -31t-11 -34l-6 -15l-3 -8l7 -5
q58 -34 69 -42q7 -6 10 -11q-6 0 -15 4q-26 11 -46.5 21.5t-30 16.5t-10.5 9q-2 4 -2 14t1 17l1 8l3 23z" />
    <glyph glyph-name="uniF13C" unicode="&#xf13c;" 
d="M358 120q0 -13 -10 -22v-29q0 -8 -6 -14t-14.5 -6t-14.5 6t-6 14v29q-10 9 -10 22t9 22t21.5 9t21.5 -9t9 -22zM184 -23q-4 0 -7 3t-3 7v225q0 5 3 8t7 3h287q4 0 7 -3t3 -8v-225q0 -4 -3 -7t-7 -3h-287zM184 -44h287q13 0 22 9t9 22v225q0 13 -9 22t-22 9h-31v62
q0 46 -33 79t-79.5 33t-79.5 -33t-33 -79v-62h-31q-12 0 -21 -9t-9 -22v-225q0 -13 9 -22t21 -9zM236 243v62q0 38 26.5 65t65 27t65.5 -27t27 -65v-62h-184z" />
    <glyph glyph-name="uniF13D" unicode="&#xf13d;" 
d="M250 28l141 164h-223l-82 -164h164zM346 172l-105 -123h-122l61 123h166zM304 261l-14 -15q8 -8 18.5 -10.5t40.5 -2.5q15 -94 51 -198l19 7q-17 49 -29.5 100t-16.5 72.5t-4 29.5l-1 9h-10q-39 0 -43.5 1t-10.5 7zM159 234l-18 -9l96 -191l18 9zM205 237q0 -14 -38 -14
q-7 0 -16 -2.5t-15 -5t-12 -3t-8.5 3t-2.5 13.5q0 14 13 14h66q13 0 13 -6zM20 38.5q0 42.5 20 62t62.5 19.5t62 -19.5t19.5 -62t-19.5 -62.5t-62 -20t-62.5 20t-20 62.5zM0 38.5q0 -49.5 26.5 -76t76 -26.5t76 26.5t26.5 76t-26.5 76t-76 26.5t-76 -26.5t-26.5 -76z
M328 38.5q0 42.5 19.5 62t62 19.5t62.5 -19.5t20 -62t-20 -62.5t-62.5 -20t-62 20t-19.5 62.5zM307 38.5q0 -49.5 26.5 -76t76 -26.5t76 26.5t26.5 76t-26.5 76t-76 26.5t-76 -26.5t-26.5 -76z" />
    <glyph glyph-name="uniF13E" unicode="&#xf13e;" 
d="M225 376h21v36q0 5 5 5t5 -5v-36h20v36q0 11 -7.5 18.5t-18 7.5t-18 -7.5t-7.5 -18.5v-36zM276 253h-20v-51h20v51zM225 202h21v51h-21v-51zM276 79h-20v-143h20v143zM225 -64h21v143h-21v-143zM92 243h363l60 72l-60 72h-363v-144zM446 264h-333v102h333l42 -51zM66 90
l-42 51l42 51h333v-102h-333zM57 69h363v143h-363l-60 -71z" />
    <glyph glyph-name="uniF13F" unicode="&#xf13f;" 
d="M256 394q9 -7 40.5 -28t50.5 -37t43.5 -41t37 -53.5t12.5 -60.5q0 -39 -28 -67t-68 -28q-27 0 -50 15l-23 14l32 -108q-27 3 -47 3t-47 -3l32 108l-23 -14q-23 -15 -50 -15q-40 0 -68 28t-28 67q0 32 12 60t36 52.5t43 40.5t51 38t42 29zM249 415q-9 -8 -38.5 -27.5
t-53 -38t-50 -45t-41.5 -60t-15 -70.5q0 -47 34 -81t83 -34q19 0 39 7l-27 -92l16 3q30 5 60 5q13 0 28 -1t23 -3l9 -1l16 -3l-27 92q20 -7 39 -7q49 0 83 34t34 81q0 37 -15 70.5t-41.5 60t-50 45t-53 38t-38.5 27.5l-7 5z" />
    <glyph glyph-name="uniF140" unicode="&#xf140;" 
d="M197 73l14 15l-104 104l105 104l-15 15l-119 -119zM420 182v20h-321v-20h321z" />
    <glyph glyph-name="uniF141" unicode="&#xf141;" 
d="M205 192q0 -24 13.5 -37.5t37.5 -13.5t37.5 13.5t13.5 37.5q0 11.129 -2.90302 20h134.931q0.971985 -9.802 0.971985 -20q0 -15.987 -2.38901 -31h-89.611q-25 0 -43 -18t-18 -43v-89.6106q-15.013 -2.3894 -31 -2.3894q-76 0 -130 54q-34.9042 34.9042 -47.2472 79
h85.2472q18 0 29.5 -12t11.5 -29v-82h20v82q0 25 -17.5 43t-43.5 18h-89.6106q-2.3894 15.013 -2.3894 31q0 10.198 0.972298 20h134.931q-2.903 -8.871 -2.903 -20zM160 233q4 2 22.5 10.5t25.5 11t21 6t27 3.5q11 0 20 -1.5t20 -5t16.5 -6t20.5 -9t22 -9.5h-65.466
q-12.878 10 -33.534 10t-33.534 -10h-62.466zM256 449q-106 0 -181.5 -75.5t-75.5 -181.5t75.5 -181.5t181.5 -75.5t181.5 75.5t75.5 181.5t-75.5 181.5t-181.5 75.5zM256 427q97 0 166 -69t69 -166t-69 -166t-166 -69t-166 69t-69 166t69 166t166 69zM415 141l-108 -100v59
q0 16 12.5 28.5t28.5 12.5h67zM467 161h-8.10999q2.10999 15.06 2.10999 31q0 85 -60 145t-145 60t-145 -60t-60 -145t60 -145t145 -60t145 60q45.435 45.4352 56.464 105.206zM229.007 212h53.986q4.00699 -7.138 4.00699 -20q0 -17 -7 -24t-24 -7t-24 7t-7 24
q0 12.862 4.007 20zM309.058 15.3427l118.819 109.577q-13.463 -34.5055 -41.877 -62.92q-34.088 -34.0876 -76.942 -46.6573zM435.655 233.347q-36.305 2.62801 -86.655 25.153q-57 25.5 -93 25.5t-91.5 -25.5q-49.438 -22.715 -88.1642 -25.196
q10.9656 49.997 49.6642 88.696q54 54 130 54t130 -54q38.682 -38.682 49.655 -88.653z" />
    <glyph glyph-name="uniF142" unicode="&#xf142;" 
d="M379 -23q0 8 6.5 14t14 6t14 -6t6.5 -14t-6.5 -14.5t-14 -6.5t-14 6.5t-6.5 14.5zM358 -23q0 -13 14.5 -27t27 -14t26.5 14t14 27t-14 27t-26.5 14t-27 -14t-14.5 -27zM246 -23q0 8 6 14t14 6t14.5 -6t6.5 -14t-6.5 -14.5t-14.5 -6.5t-14 6.5t-6 14.5zM225 -23
q0 -13 14.5 -27t27 -14t26.5 14t14 27t-14 27t-26.5 14t-27 -14t-14.5 -27zM0 407.5q0 20.5 20.5 20.5t20.5 -20.5t-20.5 -20.5t-20.5 20.5zM420 -2v20h-157q-19 0 -24 6q-7 8 -12 27l-82 331q-7 23 -19 34q-5 4 -17.5 7.5t-19.5 3.5h-69v-20h69q16 0 23 -6q8 -7 13 -24
l82 -331q6 -24 16 -35q5 -5 18 -9t22 -4h157zM164 294v-20h303l-66 -174h-190v-21h204l81 215h-332zM284 240l-15 -14l82 -82l15 14zM366 226l-15 14l-82 -82l15 -14z" />
    <glyph glyph-name="uniF143" unicode="&#xf143;" 
d="M358 151q0 10 10.5 10q10.363 0 10.498 -9.74001l20.57 20.74h-0.0679932q-10.5 0 -10.5 10t10.5 10q10.228 0 10.493 -9.48801l19.34 19.5q-9.33301 0.344009 -9.33301 10.488q0 10.5 10 10.5q9.87299 0 9.99799 -10.234l20.089 20.256
q-9.08701 0.444992 -9.08701 9.978q0 10 10 10q8.91199 0 9.88199 -7.942q2.08902 4.97101 -2.88199 9.942l-127 128q-7 8 -14 0l-127.516 -128.451q3.283 -3.05899 6.56601 -6.119q2.19 4.57001 8.95 4.57001q10 0 10 -10q0 -6.248 -3.90401 -8.593l16.428 -15.31
q2.379 3.903 8.476 3.903q10 0 10 -10.5q0 -5.47099 -2.715 -8.092l15.675 -14.608q2.61502 2.2 7.54001 2.2q10.5 0 10.5 -10q0 -4.52901 -2.15399 -7.007l16.348 -15.235q2.28201 1.242 5.806 1.242q10 0 10 -10q0 -3.017 -0.910004 -5.12399l16.922 -15.772
q2.06799 0.895996 4.98801 0.895996q10 0 10 -10.5q0 -0.253998 -0.00601196 -0.501999l20.831 21.004l-0.325012 -0.0019989q-10.5 0 -10.5 10zM358 212.5q0 10.5 10.5 10.5t10.5 -10.5t-10.5 -10.5t-10.5 10.5zM297 212.5q0 10.5 10 10.5t10 -10.5t-10 -10.5t-10 10.5z
M328 182q0 10 10 10t10 -10t-10 -10t-10 10zM420 274q0 10 10 10t10 -10t-10 -10t-10 10zM389 243q0 10 10.5 10t10.5 -10t-10.5 -10t-10.5 10zM358 274q0 10 10.5 10t10.5 -10t-10.5 -10t-10.5 10zM297 274q0 10 10 10t10 -10t-10 -10t-10 10zM328 243q0 10 10 10t10 -10
t-10 -10t-10 10zM358 335.5q0 10.5 10.5 10.5t10.5 -10.5t-10.5 -10.5t-10.5 10.5zM297 335.5q0 10.5 10 10.5t10 -10.5t-10 -10.5t-10 10.5zM266 243q0 10 10.5 10t10.5 -10t-10.5 -10t-10.5 10zM236 274q0 10 10 10t10 -10t-10 -10t-10 10zM266 304.5q0 10.5 10.5 10.5
t10.5 -10.5t-10.5 -10.5t-10.5 10.5zM389 304.5q0 10.5 10.5 10.5t10.5 -10.5t-10.5 -10.5t-10.5 10.5zM328 304.5q0 10.5 10 10.5t10 -10.5t-10 -10.5t-10 10.5zM328 366q0 10 10 10t10 -10t-10 -10t-10 10zM141 -23l-101 102q-9 9 -9 22t9 22l272 275q9 9 22 9t22 -9
l127 -128q9 -9 9 -22t-9 -22l-226.169 -228h163.169v-21h-184h-59h-36zM185.021 239.981l-131.021 -131.981q-7 -7 0 -15l95 -95h28h50l104.551 105.419z" />
    <glyph glyph-name="uniF144" unicode="&#xf144;" 
d="M471 223v-62h-31v-51q0 -13 -9 -22t-21 -9h-328q-13 0 -22 9t-9 22v164q0 13 9 22t22 9h328q12 0 21 -9t9 -22v-51h31zM492 243h-31v31q0 21 -15 36t-36 15h-328q-21 0 -36 -15t-15 -36v-164q0 -21 15 -36t36 -15h328q21 0 36 15t15 36v31h31v102zM143 182l113 51v-41
l92 10l-112 -51v41z" />
    <glyph glyph-name="uniF145" unicode="&#xf145;" 
d="M143 202.5q0 38.5 37 75.5t76 37t76 -37t37 -75.5t-37 -75.5t-76 -37t-76 37t-37 75.5zM123 202.5q0 -43.5 45 -88.5t88 -45t88 45t45 88.5t-45 88t-88 44.5t-88 -44.5t-45 -88zM184 202q0 25 23.5 48.5t48.5 23.5t48.5 -23.5t23.5 -48.5t-23.5 -48t-48.5 -23t-48.5 23
t-23.5 48zM164 202.5q0 -29.5 31 -61t61 -31.5t61 31.5t31 61t-31 60.5t-61 31t-61 -31t-31 -60.5zM481 335q5 0 8 -3t3 -7v-276q-1 -5 -4 -8t-7 -3h-450q-5 0 -8 3t-3 8v276q0 4 3 7t8 3h102q6 0 15 9t14 17q8 12 13 15h162q6 -4 13 -15q5 -8 14 -17t15 -9h102zM481 356
h-101q-5 3 -13 16q-5 8 -14 16.5t-15 8.5h-164q-6 0 -15 -8.5t-14 -16.5q-7 -12 -13 -16h-101q-13 0 -22 -9t-9 -22v-276q0 -13 9 -22t22 -9h450q13 0 22 9t9 22v276q0 13 -9 22t-22 9zM92 305q9 0 15 -6t6 -14.5t-6 -14.5t-15 -6h-10q-9 0 -15 6t-6 14.5t6 14.5t15 6h10z
" />
    <glyph glyph-name="uniF146" unicode="&#xf146;" 
d="M246 182h-92v-21h102v1h10v173h-20v-153zM487 322l-101 101q15 5 27 5q11 -1 29.5 -8.5t26 -15t15.5 -26t8 -29.5q-1 -13 -5 -27zM499 300q4 7 8.5 23.5t4.5 25.5q0 13 -9.5 36.5t-19.5 33.5t-33.5 19.5t-36.5 9.5q-9 0 -25.5 -4.5t-23.5 -8.5l-12 -7l140 -140zM13 300
l7 -12l140 140l-12 7q-7 4 -23.5 8.5t-25.5 4.5q-13 0 -36.5 -9.5t-33.5 -19.5t-19.5 -33.5t-9.5 -36.5q0 -9 4.5 -25.5t8.5 -23.5zM25 322q-5 14 -5 27q0 11 8 29.5t15.5 26t26 15.5t29.5 8q13 -1 27 -5zM19 174q0 99 69.5 168.5t168.5 69.5t168.5 -69.5t69.5 -168.5
q0 -98.6747 -69.044 -168.043l52.044 -52.9571l-14 -14l-53.017 53.0173q-65.103 -56.0173 -153.983 -56.0173q-89.613 0 -155.055 56.945l-53.945 -53.945l-14 14l53.0403 53.9708q-68.0403 69.0744 -68.0403 167.029zM42 173q0 -89 63 -152t152 -63t152 63t63 152t-63 152
t-152 63t-152 -63t-63 -152z" />
    <glyph glyph-name="uniF147" unicode="&#xf147;" 
d="M245 268l-15 14l-213 -235q-8 -10 -6.5 -21.5t10.5 -20.5l48 -48q8 -9 20 -10.5t22 6.5l235 213l-14 15l-234 -213q-6 -5 -15 4l-47 47q-9 9 -4 15zM370 169l125 70q12 12 2 34t-35.5 50t-51.5 52.5t-47 40.5q-10 7 -15.5 10.5t-15.5 8.5t-17 4t-12 -8v-1l-70 -124
q-9 -13 -6 -29t15 -28l71 -71q12 -12 28 -15t29 6zM319 417q23 -5 89.5 -70.5t72.5 -91.5l-122 -69h-1q-4 -4 -13.5 -2.5t-17.5 8.5l-71 71q-7 8 -8.5 17.5t2.5 13.5v1zM213 134q-2 -2 -6.5 -6t-9.5 -9t-6 -7q-7 -7 -14.5 0.5t-0.5 14.5q2 2 6.5 6t9.5 9t6 7q7 7 14.5 -0.5
t0.5 -14.5zM227 120q9 9 9 21.5t-9 21.5t-21.5 9t-21.5 -9q-22 -21 -22 -22q-9 -9 -9 -21.5t9 -21.5t21.5 -9t21.5 9z" />
    <glyph glyph-name="uniF148" unicode="&#xf148;" 
d="M317 115q5 -16 28.5 -27.5t48 -19.5t45 -28.5t22.5 -52.5h-389q2 32 22.5 52.5t45 28.5t48 19.5t28.5 27.5q1 8 1 13q-73 8 -73 27v0v0q9 10 11 39.5t3 62.5t7.5 66t32 56.5t69.5 26.5q24 0 38 -12q32 2 49.5 -19.5t21.5 -54t4 -66t1.5 -62t10.5 -36.5v-1q0 -9 -21 -16.5
t-55 -11.5q0 -8 1 -12z" />
    <glyph glyph-name="uniF149" unicode="&#xf149;" 
d="M420 284v21h-123v123h-21v-144h144zM72 -64h368v363l-149 149h-219v-512zM420 -44h-328v472h190l138 -138v-334z" />
    <glyph glyph-name="uniF14A" unicode="&#xf14a;" 
d="M195 38h122v-30q0 -5 -3 -8t-7 -3h-102q-4 0 -7 3t-3 8v30zM174 59v-51q0 -13 9 -22t22 -9h102q13 0 22 9t9 22v51h-164zM317 49h21v61q0 14 11 28t24.5 26t25 38.5t11.5 61.5q0 63 -45 108t-109 45t-109 -45t-45 -108q0 -36 11.5 -63.5t25 -41t24.5 -26.5t11 -23v-61h21
v61q0 19 -11.5 35.5t-25 28t-24.5 35t-11 55.5q0 55 39 94t94 39t94 -39t39 -94q0 -31 -11 -53t-24.5 -33t-25 -28.5t-11.5 -39.5v-61zM297 -13h-21q0 -8 -6 -14t-14 -6t-14 6t-6 14h-21q0 -17 12 -29t29 -12t29 12t12 29zM266 212h-20v-133h20v133zM222 261l-14 -15l48 -48
l48 48l-14 15l-34 -34z" />
    <glyph glyph-name="uniF14B" unicode="&#xf14b;" 
d="M205 268v-86h10q191 0 266 118q-7 -28 -18 -52.5t-32 -53t-48.5 -48.5t-71 -33t-96.5 -13h-10v-86l-168 127zM225 309l-221 -168l221 -168v106q61 2 109.5 20t78 45t50.5 59.5t30 65t14 59t5 42.5v17h-20q-1 -3 -2 -9.5t-7.5 -25.5t-16.5 -36t-30.5 -38t-47 -36.5
t-69 -26.5t-94.5 -13v107z" />
    <glyph glyph-name="uniF14C" unicode="&#xf14c;" 
d="M452 315q9 -47 9 -67q0 -36 -26 -36q-15.069 0 -25.423 11h0.423004v92h42zM92 8h184v153h-184v-153zM113 28v113h143v-113h-143zM389 315v-91.379q-10.467 -11.621 -25.5 -11.621t-25.5 11.621v91.379h51zM317 315v-92h0.423004q-10.354 -11 -25.423 -11
q-15.491 0 -26 11.625v91.375h51zM246 315v-91.375q-10.509 -11.625 -26 -11.625q-15.069 0 -25.423 11h0.423004v92h51zM174 315v-91.379q-10.467 -11.621 -25.5 -11.621t-25.5 11.621v91.379h51zM102 315v-92h0.422997q-10.3541 -11 -25.423 -11q-26 0 -26 36q0 20 9 67
h42zM41 327q-10 -53 -10 -79q0 -21.448 10 -37.243v-254.757h430v254.757q10 15.795 10 37.243q0 26 -10 79v60h-430v-60zM451 335h-390v31h390v-31zM61 194.444q7.1484 -2.444 16 -2.444q20 0 36 13q16 -13 35.5 -13t35.5 13q16 -13 36 -13t36 13q16 -13 36 -13t36 13
q16 -13 35.5 -13t35.5 13q16 -13 36 -13q8.85199 0 16 2.444v-217.444h-31v184h-113v-184h-246v217.444zM328 -23v164h71v-164h-71z" />
    <glyph glyph-name="uniF14D" unicode="&#xf14d;" 
d="M225 346h-20v-103h-103v-20h123v123zM79 384l-15 -15l139 -139l15 15zM225 346h-20v-103h-103v-20h123v123zM79 384l-15 -15l139 -139l15 15zM287 38h20v103h103v20h-123v-123zM433 0l15 15l-139 139l-15 -15zM287 38h20v103h103v20h-123v-123zM433 0l15 15l-139 139
l-15 -15zM410 223v20h-103v103h-20v-123h123zM448 369l-15 15l-139 -139l15 -15zM410 223v20h-103v103h-20v-123h123zM448 369l-15 15l-139 -139l15 -15zM102 161v-20h103v-103h20v123h-123zM64 15l15 -15l139 139l-15 15zM102 161v-20h103v-103h20v123h-123zM64 15l15 -15
l139 139l-15 15z" />
    <glyph glyph-name="uniF14E" unicode="&#xf14e;" 
d="M236 141h-52v52q0 9 11 9h41v-61zM256 141v61h31q5 0 16 -5.5t17 -11.5v1l11 -15q11.625 -14.531 27.003 -30h-102.003zM51 141h-10q-13 0 -27 -14.5t-14 -26.5v-85q0 -4 3.5 -11t6.5 -10q9 -7 21 -7h21.4915q4.105 -14.5965 19.5085 -30q21 -21 40.5 -21t40.5 21
q15.404 15.4035 19.509 30h166.982q4.10501 -14.5965 19.509 -30q21 -21 40.5 -21t40.5 21q15.404 15.4035 19.509 30h21.491q13 0 22 9.5t9 21.5v61q0 9 -14 21t-27 17q-36 15 -80 24q-4 0 -18 14t-26 29l-12 15q-8 8 -24 16t-24 8h-92q-9 0 -20 -10.5t-11 -19.5v-52h-113z
M389 120.578q41.77 -8.904 74 -22.578q7 -3 14 -7.5t11 -7.5t4 -4v-61q-1 -4 -4 -7t-7 -3h-21.491q-4.10501 14.5965 -19.509 30q-21 21 -40.5 21t-40.5 -21q-15.404 -15.4035 -19.509 -30h-166.982q-4.105 14.5965 -19.509 30q-21 21 -40.5 21t-40.5 -21
q-15.4035 -15.4035 -19.5085 -30h-21.4915q-5 0 -8 2t-3 5v85q0 8 6.5 14t14.5 6h10h133h205v0.578003zM73.7482 -13h78.4368q-3.136 -8.9505 -11.685 -17.5q-13.5 -13.5 -28 -13.5t-27.5 13.5q-8.2328 8.5495 -11.2518 17.5zM152.161 8h-78.3898q3.0273 8.7985 11.2288 17
q13 13 27.5 13t28 -13q8.517 -8.2015 11.661 -17zM359.815 -13h78.437q-3.01901 -8.9505 -11.252 -17.5q-13 -13.5 -27.5 -13.5t-28 13.5q-8.54901 8.5495 -11.685 17.5zM438.229 8h-78.39q3.14401 8.7985 11.661 17q13.5 13 28 13t27.5 -13q8.20099 -8.2015 11.229 -17z
" />
    <glyph glyph-name="uniF14F" unicode="&#xf14f;" 
d="M448 223q14 0 25 -7.5t15 -14t4 -9.5t-4 -9.5t-14.5 -14t-25.5 -7.5h-160l-3 -4q-127 -162 -129 -164q-2 -3 -4 -3q-6 -1 -16 -2l65 159l6 14h-151l-3 -5q-25 -48 -32 -61q7 32 20 95v2v2q-14 63 -20 95q4 -7 32 -61l3 -5h151l-6 14q-45 110 -65 159q10 -1 16 -2
q2 0 4 -3l129 -164l3 -4h160zM448 243h-150q-124 158 -126 161q-7 9 -18 10q-14 2 -24 3q-8 1 -13.5 -5.5t-2.5 -15.5q3 -8 63 -153h-109q-23 44 -27 51q-5 10 -20 11h-22l1 -15q1 -5 20 -98q-19 -92 -20 -97l-3 -16h24q15 1 20 11q4 7 27 51h109q-60 -145 -63 -153
q-3 -9 2.5 -15.5t13.5 -5.5q10 1 24 3q11 1 18 10q2 2 126 161h150q30 0 47 17.5t17 33.5t-17 33.5t-47 17.5z" />
    <glyph glyph-name="uniF150" unicode="&#xf150;" 
d="M451 130q0 -4 -2.5 -6.5t-4.5 -2.5l-3 -1h-20q-11 1 -11 10v14q0 4 6 4q3 0 5 -1t2 -2v-1v-8q1 -4 7 -4q3 0 4.5 1t2.5 2v1v8q1 4 7 4l7 -4v-14zM505 -60l-7 20q-7 -3 -15 -3q-31 0 -51 15l-6 5l-6 -5q-20 -15 -51 -15t-50 15l-6 5l-7 -5q-19 -15 -50 -15t-50 15l-7 5
l-6 -5q-19 -15 -50 -15t-51 15l-6 5l-6 -5q-20 -15 -51 -15q-8 0 -17 1l-3 -20q10 -1 20 -1q32 0 57 15q24 -15 56.5 -15t56.5 15q25 -15 57 -15t57 15q24 -15 56.5 -15t56.5 15q25 -15 57 -15q12 0 22 3zM505 -19l-7 19q-7 -2 -15 -2q-31 0 -51 15l-6 5l-6 -5
q-15.109 -11.3315 -36.495 -14.1028q32.989 14.9571 62.495 42.1028q50 46 65 114q3 15 -4 25q-10 12 -26 12h-77.788l-91.212 102h-94l-21 -61h-39l-51 61h-61l24 -60l-27.7021 -42h-11.2979q-13 0 -22 -9t-9 -22v-56q0 -40 20 -69q14.7542 -21.3936 33.8622 -35.1682
q-11.3928 -2.83182 -24.8622 -2.83182q-8 0 -17 1l-3 -20q10 -1 20 -1q32 0 57 15q24 -15 56.5 -15t56.5 15q25 -15 57 -15t57 15q24 -15 56.5 -15t56.5 15q25 -15 57 -15q12 0 22 3zM372 174.146v7.854h-308v-5.25l-2.3035 7.026l18.321 28.224h68.9825h63h145.408
l22.671 -25.834zM363.164 161l-20.164 -30h-264l-9.8361 30h294zM338.98 233h-119.867l13.887 41h70zM131.726 233h-39.107l-15.619 41h21zM76.732 10.6976q-23.1828 12.9521 -39.732 36.8024q-17 24.5 -17 57.5v56q0 4 3.5 7.5t7.5 3.5h13l20 -62h290l41 62h86q6 0 10 -5
q1 -2 0 -8q-14 -61 -59.5 -103q-44.753 -41.3103 -97.729 -51.663q-8.121 3.4126 -14.771 8.66296l-6 5l-7 -5q-19 -15 -50 -15t-50 15l-7 5l-6 -5q-19 -15 -50 -15t-51 15l-6 5l-6 -5q-1.5988 -1.1991 -3.268 -2.3024z" />
    <glyph glyph-name="uniF151" unicode="&#xf151;" 
d="M420 346h20v32q0 12 -8.5 20.5t-20.5 8.5h-54q-12 0 -20.5 -8.5t-8.5 -20.5v-32h20v32q0 9 9 9h54q9 0 9 -9v-32zM164 346h20v32q0 12 -8.5 20.5t-20.5 8.5h-54q-12 0 -20.5 -8.5t-8.5 -20.5v-32h20v32q0 9 9 9h54q9 0 9 -9v-32zM464 314q11 0 19 -7.5t8 -18.5v-263
q0 -11 -8 -19t-19 -8h-416q-11 0 -19 8t-8 19v263q0 11 8 18.5t19 7.5h416zM464 336h-416q-20 0 -34.5 -14t-14.5 -34v-263q0 -20 14.5 -34.5t34.5 -14.5h416q20 0 34.5 14.5t14.5 34.5v263q0 20 -14.5 34t-34.5 14zM72 141v31h112v-31h-112zM328 141v31h112v-31h-112z
M369 100v112h30v-112h-30z" />
    <glyph glyph-name="uniF152" unicode="&#xf152;" 
d="M378 237h-20v-147h-147v-20h167v167zM144 318l-14 -14l223 -223l14 14z" />
    <glyph glyph-name="uniF153" unicode="&#xf153;" 
d="M245 200l-98 -114l14 -14l85 86v-205l136 137l-100 100l94 97l6 7l-136 137v-205l-85 86l-14 -14zM266 179l89 -89l-89 -89v171v3v4zM266 205v178l89 -89z" />
    <glyph glyph-name="uniF154" unicode="&#xf154;" 
d="M20 191q0 -98 69 -167t167 -69t167 69t69 167t-69 167t-167 69t-167 -69t-69 -167zM0 192q0 105 75 179.5t181 74.5t181 -74.5t75 -179.5t-75 -179.5t-181 -74.5t-181 74.5t-75 179.5zM241 137v15q0 18 11 33l25 34q17 23 17 38q0 16 -10 25t-26 9q-31 0 -38 -35
q-1 -3 -4 -3l-23 4q-4 1 -3 5q4 26 22.5 42t46.5 16q30 0 48 -17.5t18 -45.5q0 -21 -18 -47l-25 -34q-9 -13 -9 -28v-11q0 -4 -4 -4h-24q-4 0 -4 4zM239 101q0 4 4 4h28q3 0 3 -4v-31q0 -4 -3 -4h-28q-4 0 -4 4v31z" />
    <glyph glyph-name="uniF155" unicode="&#xf155;" 
d="M461 217.5q0 23.5 -16.5 40t-40 16.5t-40 -16.5t-16.5 -40t16.5 -40t40 -16.5t40 16.5t16.5 40zM440 217.5q0 -14.5 -10.5 -25t-25 -10.5t-25 10.5t-10.5 25t10.5 25t25 10.5t25 -10.5t10.5 -25zM495 63l13 15q-7 7 -18.5 15t-47 22.5t-69.5 14.5q-38 0 -107.5 -18
t-107.5 -18q-42 0 -77 10.5t-50 20.5l-14 11l-13 -16q6 -6 18 -13.5t52 -20.5t84 -13q43 0 112.5 18.5t102.5 18.5q30 0 60.5 -12t46.5 -24zM74 106l10 -18l183 109l-23 50q0 1 -0.5 2.5t-3 6.5t-6 7t-9 4t-12.5 -1q-10 -4 -51 -24t-45 -21q-9 -3 -14 -1.5t-3 7.5t11 11
q17 10 43 23.5t49 25l25 12.5q7 5 12 4t11 -11q9 -15 41 -65t37 -59q9 -15 9 -22t-11 -20l14 -15q29 28 6 68q-5 9 -37.5 59.5t-40.5 64.5q-19 32 -51 14q-1 0 -24.5 -12t-49.5 -25.5t-43 -23.5q-18 -11 -20 -27t11 -25.5t33 -1.5q5 2 46.5 22t47.5 22q2 1 3.5 -0.5
t2.5 -5.5l15 -35z" />
    <glyph glyph-name="uniF156" unicode="&#xf156;" 
d="M157 150q3 -7 17 -12.5t27 -13.5t14 -24h-154q1 16 14 24t27.5 13.5t16.5 12.5q1 4 1 17q-8 4 -9 20q-6 0 -7 11q-1 6 3 9q-14 56 31 57q14 0 18 -7q16 -3 17.5 -22.5t-3.5 -27.5q3 -3 3 -9q-2 -11 -7 -11q-2 -16 -9 -20v-17zM266 223v-21h185v21h-185zM266 172v-21h185
v21h-185zM266 120v-20h185v20h-185zM481 315q5 0 8 -3t3 -7v-287q0 -4 -3 -7t-8 -3h-51v20h-61v-20h-226v20h-61v-20h-51q-5 0 -8 3t-3 7v328q0 4 3 7t8 3h205q4 0 7 -3t3 -7v-31h235zM481 335h-215v11q0 12 -9 21t-21 9h-205q-13 0 -22 -9t-9 -21v-328q0 -13 9 -22t22 -9
h71v21h21v-21h266v21h21v-21h71q13 0 22 9t9 22v287q0 12 -9 21t-22 9z" />
    <glyph glyph-name="uniF157" unicode="&#xf157;" 
d="M258 281l-3 -21l5 -0.5q5 -0.5 14 -1.5t20.5 -2.5t24 -3.5t25.5 -3.5t25.5 -3t22.5 -3t17 -2.5q1.23199 -0.175995 2.30899 -0.320999l-155.309 -60.679l-215 84l215 65l215 -65l-27.604 -10.785q-8.93201 6.10199 -22.396 7.785zM471 110q0 9 -6 15
q-1.87799 1.878 -4 3.168v82.832q0 14.179 -4.15399 24.308l76.154 29.692l-277 85l-277 -85l123 -47.957v-81.043q0 -32 46 -49.5t108 -17.5t108 17.5t46 49.5v81.043l28.034 10.93q0.256989 -0.707001 0.466003 -1.47301q1.5 -5.5 1.5 -15.5v-82.832
q-2.12201 -1.29 -4 -3.168q-6 -6 -6 -15q0 -11 21 -61l5 12q5 13 10 28.5t5 20.5zM123 208.856l133 -51.856l133 51.856v-72.856q0 -16 -38.5 -31t-94.5 -15q-38 0 -70 7.5t-47.5 18t-15.5 20.5v72.856z" />
    <glyph glyph-name="uniF158" unicode="&#xf158;" 
d="M481 376h-296q-1 1 -7 11.5t-15 20t-20 9.5h-112q-13 0 -22 -9t-9 -21v-103v-112v-175q0 -12 9 -21t22 -9h450q13 0 22 9t9 21v175v112v62q0 12 -9 21t-22 9zM481 356q5 0 8 -3t3 -7v-32.863q-5.086 1.86301 -11 1.86301h-450q-5.9139 0 -11 -1.86301v73.863q0 4 3 7t8 3
h112q2 -5 6 -11.5t14.5 -18t20.5 -11.5h297zM20 172v112q0 4 3 7t8 3h450q5 0 8 -3t3 -7v-112v-175q0 -4 -3 -7t-8 -3h-450q-5 0 -8 3t-3 7v175z" />
    <glyph glyph-name="uniF159" unicode="&#xf159;" 
d="M452.03 213.414l-6.76001 -0.582001l-0.852997 9.998q-0.962982 11.299 -2.23499 19.488l-1.23001 7.91l6.229 2.55301q0.158997 0.932999 0 1.778q-3.11301 17.466 -9.069 37.794q-3.26199 1.31 -3.27899 1.29599q-0.085022 -0.0699768 -0.580017 0.129028l-4.022 1.616
l-1.63898 4.00998q-2.00702 5.017 -6.19501 15.068l-2.521 6.05002l4.936 5.21298q-0.381012 -0.0959778 -0.325012 2.634q-6.80801 14.798 -15.643 28.875l-5.17899 -9.06097l-8.98502 15.152l-6.52399 8.23901l-4.14401 4.90799l3.20502 6.76599l-0.200012 2.60901
q-10.739 11.097 -21.181 19.081q-3.508 0.052002 -12.075 -0.806976l-17.62 -1.76602l2.95102 16.013v1.90601q-12.958 4.91202 -23.526 6.52301l-0.529999 0.0950012l-15.795 0.645996q-13.582 -4.66602 -28.434 -13.125q-4.241 -9.36301 -9.16101 -13.884
q-4.91998 -4.521 -8.12799 -5.30301q-3.209 -0.781006 -12.157 -1.815q-3.78799 -3.28598 -8.323 -7.647q0.547012 -12.98 -7.416 -20.844q-7.96199 -7.86301 -17.758 -8.64398q-7.43401 -10.657 -13.864 -22.12q2.104 -32.2 -17.223 -38.562
q-5.37099 -15.417 -9.38599 -32.793q6.80899 -11.349 3.45599 -22.601q-3.35201 -11.251 -9.541 -16.031q-1.556 -17.659 -1.556 -33.379q8.71899 -1.86101 8.62601 -18.276q-0.0930023 -16.415 -6.23601 -23.253q2.33501 -18.044 6.033 -34.027
q22.833 -18.237 12.13 -38.621q5.30101 -12.7978 11.168 -24.0957q24.368 -13.9571 19.766 -30.9716q8.795 -11.2814 16.784 -19.462q18.276 -3.02425 23.782 -20.8916q21.167 -15.8819 46.156 -25.289l12.671 0.568298q7.50699 0.263699 14.919 1.8233
q2.16699 2.4565 6.65799 8.8154l2.88901 4.086l4.99799 0.2334l14.755 0.646399q10.739 6.6429 21.746 16.2266q0.303009 0.8421 0.218994 2.30664l-2.79898 7.09473l4.68399 4.69726q3.255 3.26281 7.54401 8.31447q10.201 13.2685 18.175 17.5347
q7.97299 4.2662 12.51 12.6108q0.444 0.8255 0.0799866 3.0469l-4.285 5.4023l2.798 5.6592q1.353 2.7358 4.91 5.91q3.55801 3.1743 6.81699 11.0265q3.25302 8.5892 8.64502 19.5992q5.392 11.0098 7.54599 20.0818q0.315002 1.349 0 2.152l-5.79401 3.181l1.505 7.314
q1.655 8.03799 3.276 19.251l1.22101 8.455h6.75198q2.23102 21.564 2.23102 40.296q-0.0119934 9.284 -0.600006 21.168zM404 -11q0.00299072 -2.3984 -13.355 -15.5557q-12.763 -11.6137 -26.707 -19.7646l-3.53998 -2.0693h-4.048q-9.397 0 -9.70801 -0.3536
q-0.112 -0.127201 -1.54199 -2.1323t-2.82401 -3.6584q-1.39401 -1.6534 -4.077 -3.5957q-2.68201 -1.9422 -5.61902 -2.8001q-9.27399 -2.6373 -21.65 -3.0713q-3.19 0.0193977 -16.632 0.0908012h-0.446991h-1.39102l-0.0209961 0.00819778
q-84.753 0.4869 -97.389 0.482101q-2.78801 0 -14.835 0.975098q-12.048 0.975101 -12.685 0.975101h-1.608l-1.642 0.368099q-15.097 3.3859 -29.495 10.6758q-10.625 5.2663 -10.462 19.293q-5.044 1.5475 -6.949 1.8516l-1.169 0.186501l-2.557 -0.469101
q-2.557 -0.469099 -7.479 1.1136q-4.922 1.5828 -9.6504 5.6865q-6.7469 5.8801 -14.6905 15.3379q-7.77171 9.18918 -3.1426 20.0899q-4.5116 4.7639 -6.1191 5.9726q-1.2139 0.680601 -5.8862 2.919q-4.6724 2.2458 -6.4362 3.9385q-1.7638 1.6891 -3.8407 5.2753
q-3.1903 5.3442 -9.5517 19.6631q-3.2676 7.4096 -3.3929 8.5089q-0.125298 1.0994 4.1468 15.9276l-5.7403 11.2764q-11.234 8.8962 -13.2177 16.0945q-3.2822 12.137 -5.9151 30.605q-0.125401 0.878998 -1.0145 3.786q-0.889099 2.90601 -0.538599 4.315t2.9042 5.687
q2.5536 4.27701 8.1255 10.573l-0.162098 5.02901q-13.096 13.038 -13.3721 22.423q-0.162102 5.42099 -0.194302 11.427q0 15.509 0.494101 21.506q0.881201 10.43 11.4971 17.548l1.9795 12.55q-8.287 13.088 -6.4092 22.653q4.2009 20.483 8.0976 32.12
q3.3585 10.072 16.1084 12.225q0.983498 2.74399 1.5245 3.772q4.4197 8.40198 -0.458 25.587q-1.1981 4.22101 13.8632 25.685q2.9596 4.19601 3.9447 5.10703q0.985001 0.91098 4.8601 1.90598q3.875 0.995026 13.078 1.57101l4.5391 4.99799l-0.826302 4.01602
q-0.826401 4.01498 0.0511017 9.73499q0.877396 5.71899 4.285 9.12601q10.2706 10.351 14.6456 13.527q6.341 4.60999 23.254 3.418l1.42099 -0.274017q1.371 2.08502 3.927 6.30801q2.55501 4.22198 3.64401 5.668q1.088 1.44598 3.47699 3.479q2.388 2.034 5.51201 3.297
q11.028 4.444 27.519 6.23599q2.81999 0.197998 14.561 0q11.736 -0.200012 12.941 -0.0440063l0.656998 0.085022h82.582v-1.91q14.842 3.29398 29.404 1.073q15.268 -2.32901 29.941 -8.582q3.45898 -1.496 5.07599 -2.642q1.617 -1.147 2.12802 -1.99701
q0.511993 -0.848999 1.659 -3.33899q1.14798 -2.48901 2.72299 -4.99002l2.08701 0.679016q2.08701 0.677979 6.20898 -0.10202q4.12201 -0.780975 8.19101 -3.69897q13.35 -9.72302 25.549 -22.836q6.08798 -6.66 5.30099 -19.922q13.741 -3.90298 16.969 -8.89398
q19.157 -29.359 18.606 -33.798q-2.65698 -20.84 -0.515991 -22.459q0.756012 -0.566986 5.47101 -3.56497q4.716 -3.00101 6.44199 -5.30002q1.72702 -2.298 2.98901 -6.62601q6.147 -19.922 9.88098 -40.819q1.703 -9.60199 -4.10797 -18.558l0.926971 -8.10201
l1.91101 -1.52699q1.91202 -1.52701 3.97202 -5.55701t2.35699 -9.036q0.674988 -11.375 0.690979 -23.136q0 -21.6 -2.44498 -43.264q-0.127014 -1.13899 -0.179016 -3.41299q-0.0509949 -2.27299 -0.316986 -2.905t-1.51901 -2.535q-1.25299 -1.90199 -3.82098 -4.01399
q-2.56802 -2.112 -7.185 -5.63101q7.57397 -13.648 5.71597 -23.641q-1.836 -9.8764 -7.98798 -21.582q-9.077 -17.2691 -9.09 -20.8967q-2.28201 -19.3643 -13.282 -31.3643l-20 -22zM99 7q2.033 -7.52246 10.941 -14.2959q0.809998 -0.70234 8.862 -1.47363
q11.143 -1.78137 15.352 -2.76077q4.209 -0.9793 10.974 -7.2676q6.76401 -6.2882 7.84 -17.4033q5.384 -2.2031 14.733 -4.7265q5.686 -0.380402 12.16 -0.9105q6.46899 -0.529999 10.098 -0.816101q3.63699 -0.286098 5.09 -0.286098q9.35199 0 55.456 -0.253002
q-9.642 6.8555 -24.69 18.8487l-7.12 6.8398q-15.9 15.2747 -28.736 33.4854l4.03999 8.0195l-7.03799 -4.9424l-9.285 16.1221q-22.595 39.2318 -19.375 41.6953l6.698 5.125q-4.633 1.582 -5.74899 5.3447q-0.283005 0.954498 1.73799 2.0266q2.022 1.0722 1.246 2.7498
l-7.299 -7.1777l-4.53101 16.9996q-6.82401 25.608 -9.448 52.855l-1.06 11.002l9.01199 0.177994q0.0700073 2.304 -0.164993 4.381l-9.474 -3.98999v24.431q0 22.151 2.49199 43.081l10.238 6.119l-9.786 1.093l3.46399 17.839q5.27901 27.183 14.952 51.975
q0.557999 1.43799 1.22899 2.58899q0.052002 0.0889893 0.103012 0.175995q-0.738998 -0.28299 -1.586 -0.536987l10.594 21.202q12.516 25.05 26.446 43.021l14.536 16.191q18.862 21.008 37.313 33.903q-20.308 0.0220032 -40.617 0.0429993
q-6.14699 -0.395996 -9.92 -0.369995q-5.603 0.0379944 -11.766 0.197998q-6.168 0.160004 -6.65901 0.126007q-11.44 -1.24701 -18.105 -3.505q0.490005 -10.919 -5.289 -16.313q-5.778 -5.39401 -12.812 -5.047q-3.145 0.154999 -12.526 0.120972l-10.92 -0.039978
q-4.431 -3.85901 -7.741 -7.55402q2.3 -18.385 -6.14101 -28.696q-7.9125 -9.677 -20.81 -9.17102l-4.4922 0.200012q-2.99229 -4.71399 -11.7617 -22.41q-1.4625 -2.98499 -2.0806 -3.16699l5.3784 -8.05099q0.5056 -8.27502 -3.624 -18.941
q-4.1295 -10.665 -15.3691 -10.665q-5.5922 -16.7 -7.8711 -27.813q-0.316498 -1.61099 -0.6329 -2.13501l6.4004 -7.56699q-10.8095 -13.708 -12.8867 -45.768q-0.0595016 -0.919998 -0.0595016 -14.733q0.0303001 -5.713 0.185501 -10.932q0.0862999 -2.797 3.7363 -4.532
q9.1235 -4.355 10.5585 -13.513q2.0742 -13.237 -0.671001 -15.699q-10.6845 -9.578 -8.7097 -23.162q2.3575 -15.591 4.333 -20.676q0.446198 -1.153 1.4013 -1.677q1.4003 -14.6545 17.7686 -51.7784q5.6495 -12.2048 6.0254 -12.3555q5.9121 -7.3691 13.9121 -12.8691
q7.4055 -5.608 11.5 -22zM369.365 88.1102q-25.316 -42.0702 -57.675 -42.0702q-32.36 -0.000602722 -57.691 42.0702q-25.329 42.0728 -25.329 103.838v0.0019989q0 61.78 25.329 103.85q25.33 42.07 57.691 42.07q32.362 -0.00100708 57.675 -42.07
q25.314 -42.065 25.315 -103.85q0 -61.77 -25.315 -103.84zM311.688 25.5596h0.00201416q44.901 0 74.186 49.3967q29.284 49.3967 29.284 116.994q0 67.606 -29.284 117.003q-29.285 49.397 -74.186 49.397q-44.899 -0.00100708 -74.199 -49.397
q-29.301 -49.395 -29.301 -117.003v-0.00299072q0 -67.588 29.301 -116.991q29.302 -49.3967 74.197 -49.3967z" />
    <glyph glyph-name="uniF15A" unicode="&#xf15a;" 
d="M225 325h-20v-72h-72v-20h72v-72h20v72h72v20h-72v72zM35 243.8q0 74.52 52.7402 127.26q52.7398 52.74 127.26 52.74q74.52 0 127.26 -52.74q52.74 -52.74 52.74 -127.26q0 -68.007 -43.925 -117.875l128.925 -128.925l-29 -29l-130.045 130.045
q-45.907 -34.2454 -105.955 -34.2454q-74.52 0 -127.26 52.7402q-52.7402 52.74 -52.7402 127.26zM61 242.8q0 -63.756 45.122 -108.878q45.122 -45.1222 108.878 -45.1222q63.756 0 108.878 45.1222q45.122 45.122 45.122 108.878t-45.122 108.878
q-45.122 45.122 -108.878 45.122q-63.756 0 -108.878 -45.122q-45.122 -45.122 -45.122 -108.878z" />
    <glyph glyph-name="uniF15B" unicode="&#xf15b;" 
d="M328 100v-21h93q38 0 64.5 27t26.5 65q0 35 -24.5 60.5t-56.5 29.5q1 3 1 6q0 56 -39.5 95t-95.5 39q-39 0 -71 -20.5t-50 -54.5q-20 12 -39 12q-29 0 -49 -19.5t-23 -47.5q-31 -12 -48 -36.5t-17 -56.5q0 -41 29 -70t70 -29h85v21h-85q-33 0 -56 23t-23 55q0 27 16.5 48
t41.5 28l7 2v10q0 22 15.5 37t36.5 15t36 -15l11 -12l6 15q12 33 41.5 54t65.5 21q47 0 80.5 -33.5t33.5 -80.5q0 -6 -1 -14l-1 -12h13q28 -1 49 -21t21 -49.5t-21 -50t-50 -20.5h-93zM198 169l14 -15l44 44l44 -44l14 15l-58 58zM246 8h20v201h-20v-201z" />
    <glyph glyph-name="uniF15C" unicode="&#xf15c;" 
d="M62 245q0 -63 45 -108t108 -45t108 45t45 108t-45 108t-108 45t-108 -45t-45 -108zM39 245q0 73 51.5 124.5t124.5 51.5t124.5 -51.5t51.5 -124.5t-51.5 -124.5t-124.5 -51.5t-124.5 51.5t-51.5 124.5zM345 132l135 -135l-29 -29l-135 135z" />
    <glyph glyph-name="uniF15D" unicode="&#xf15d;" 
d="M143 223q-4 -14 -4 -31t4 -31h-108q-4 14 -4 31t4 31h108zM369 161q4 14 4 31t-4 31h108q4 -14 4 -31t-4 -31h-108zM225 79q14 -4 31 -4t31 4v-108q-14 -4 -31 -4t-31 4v108zM287 305q-14 4 -31 4t-31 -4v108q14 4 31 4t31 -4v-108zM307 68.7201
q50.873 21.1704 71.807 72.2799h86.443q-13.993 -57.7925 -56.75 -101q-43.125 -43.5793 -101.5 -57.4843v86.2044zM303.921 90.3549q-1.21899 1.94321 -2.92099 3.6451q-6 6 -14 6h-2l-2 -1q-8 -3 -27 -3q-9 0 -15.5 0.5t-9.5 1.5l-2 1l-2 1h-2q-8 0 -14 -6
q-1.911 -1.9115 -3.214 -4.1274q-17.23 8.5718 -31.286 22.6274q-13.879 13.879 -22.411 31.415q2.093 1.26701 3.911 3.08501q6 6 6 14v2l-1 2q-3 8 -3 27q0 9 0.5 15.5t1.5 9.5l1 2l1 2v2q0 8 -6 14q-1.75101 1.75101 -3.757 2.991q16.595 37.163 53.791 53.725
q1.233 -1.983 2.966 -3.716q6 -6 14 -6h2l2 1q8 3 27 3q9 0 15.5 -0.5t9.5 -1.5l2 -1l2 -1h2q8 0 14 6q1.73099 1.73099 2.96201 3.711q36.781 -16.421 54.148 -53.507q-2.20599 -1.29999 -4.10999 -3.20399q-6 -6 -6 -14v-2l1 -2q3 -8 3 -27q0 -9 -0.5 -15.5t-1.5 -9.5
l-1 -2l-1 -2v-2q0 -8 6 -14q1.69901 -1.69901 3.638 -2.91701q-17.224 -37.141 -53.717 -53.7281zM205 68.9408v-86.1944q-57.744 13.9481 -100.5 56.2536q-43.8064 43.3453 -57.4191 102h85.9521q9.98399 -24.087 28.467 -43q18.577 -19.0091 43.5 -29.0592zM205 315.325
q-51.351 -21.022 -72.421 -72.325h-86.0633q13.905 58.375 57.4843 101.5q43.207 42.757 101 56.75v-85.925zM307 315.325v85.768q57.353 -13.41 100.5 -56.093q43.897 -43.425 57.94 -102h-86.019q-21.07 51.303 -72.421 72.325zM486.418 141.98q15.582 6.089 15.582 50.02
q0 43.723 -15.434 49.962q-2.267 10.046 -5.29202 19.687q1.36301 2.94302 2.72601 6.35101q2 5 5 21.5t2 32t-9 35.5t-24.5 36.5t-36.5 24.5t-35.5 9t-32 -2t-21.5 -5q-3.63101 -1.452 -6.73401 -2.905q-9.38 2.88101 -19.136 5.03101q-5.789 15.874 -50.13 15.874
q-43.931 0 -50.02 -15.582q-10.063 -2.15601 -19.732 -5.09601q-2.89999 1.33902 -6.248 2.67801q-5 2 -21.5 5t-32 2t-35.5 -9t-36.5 -24.5t-24.5 -36.5t-9 -35.5t2 -32t5 -21.5q1.3144 -3.28601 2.6287 -6.14001q-2.9278 -9.71498 -5.0698 -19.849
q-15.5589 -6.112 -15.5589 -50.011q0 -44.807 16.2095 -50.248q1.9997 -9.67101 4.7209 -18.963q-1.4652 -3.126 -2.9304 -6.789q-2 -5 -5 -21.5t-2 -32t9 -35.5t24.5 -36.5t36.5 -24.5t35.5 -9t32 2t21.5 5q3.338 1.3351 6.23 2.6702q9.673 -2.9339 19.75 -5.0895
q6.091 -15.5807 50.02 -15.5807q43.899 0 50.011 15.5589q10.134 2.142 19.849 5.0698q2.854 -1.3143 6.14001 -2.6287q5 -2 21.5 -5t32 -2t35.5 9t36.5 24.5t24.5 36.5t9 35.5t-2 32t-5 21.5q-1.33899 3.348 -2.67801 6.248q2.94101 9.66901 5.09601 19.732z
M468.652 89.6661q2.33298 -13.0678 1.84799 -25.6661q-0.5 -13 -7 -29.5t-20.5 -29.5q-21 -22 -49 -26.5q-22.571 -3.6275 -37.994 -0.4319q36.992 17.1415 66.994 47.4319q28.813 29.0896 45.652 64.1661zM153.587 -20.6657q-13.027 -2.3174 -25.587 -1.8343
q-13 0.5 -29.5 7t-29.5 20.5q-22 21 -26.5 49q-3.6869 22.9404 -0.3255 38.497q17.1083 -37.5752 47.8255 -67.997q28.739 -28.4628 63.587 -45.1657zM43.2983 294.616q-2.2776 12.922 -1.7983 25.384q0.5 13 7 29.5t20.5 29.5q21 22 49 26.5q22.765 3.659 38.259 0.376007
q-36.597 -17.002 -66.759 -46.876q-29.218 -28.94 -46.2017 -64.384zM357.508 404.502q13.496 2.49799 26.492 1.99799q13 -0.5 29.5 -7t29.5 -20.5q22 -21 26.5 -49q3.72 -23.149 0.264008 -38.779q-17.578 37.397 -48.264 67.779q-28.955 28.668 -63.992 45.502z" />
    <glyph glyph-name="uniF15E" unicode="&#xf15e;" 
d="M113 116l-18 11l-22 -38v-1q-6 -16 28.5 -50.5t50.5 -28.5h1l38 22l-11 18l-34 -21q-12 6 -30 24t-24 30zM307 120h-20v-87l-46 -38l-14 59l-20 -5l23 -90l77 64v97zM184 223v20h-97l-64 -77l90 -23l5 20l-59 14l38 46h87zM481 417q-7 -72 -35 -129q-18 -35 -44 -62
q-54 -54 -206 -175q-18 4 -47.5 33.5t-33.5 47.5q119 150 175 206q26 26 62 44q57 28 129 35zM491 438q-76 -2 -148 -37q-39 -20 -68 -49q-61 -61 -178 -210l-1 -2l-7 -29q1 3 35 148l22 94v0v-1v0v0v0h-1v0v0v-1v0v0v0v-1v0v0v-1v0v-1v0h-1v-1v0v-1v0v-1v0v-1v0l-1 -1v0v-1
v0v-1v0v-1v0v-1h-1v-1v-1v0v-1v0v-1h-1v-1v-1v0v-1v-1l-1 -1v-1v0v-1v-1l-1 -1v-1v-1v-1v-1h-1v-1v-1v-1v-1l-1 -1v-1v-1v-1l-1 -1v-1v-1v-1l-1 -1v-1v-1v-1v-1h-1v-1v-1v-1v-1h-1v-1v-1v-1v-1l-1 -1v-1v-1v-1l-1 -1v-1v-1v-1v-1h-1v-1v-1v-1v-1l-1 -1v-1v-1v-1l-1 -1v-1v-1
v-1l-1 -1v-1v-1v-1v-1h-1v-1v-1v-1v-1l-1 -1v-1v-1v-1l-1 -1v-1v-1v-1v-1h-1v-1v-1v-1l-1 -1v-1v-1v-1v-1l-1 -1v-1v-1v-1l-1 -1v-1v-1v-1l-1 -1v-1v-1v-1v-1l-1 -1v-1v-1v-1l-1 -1v-1v-1v-1l-1 -1v-1v-1v-1v-1l-1 -1v-1v-1v-1l-1 -1v-1v-1v-1l-1 -1v-1v-1v-1v-1l-1 -1v-1
v-1l-1 -1v-1v-1v-1v-1l-1 -1v-1v-1v-1l-1 -1v-1v-1v-1v-1l-1 -1v-1v-1l-1 -1v-1v-1v-1v-1l-1 -1v-1v-1v-1v-1l-1 -1v-1v-1l-1 -1v-1v-1v-1v-1l-1 -1v-1v-1v-1l-1 -1v-1v-1v-1l-1 -1v-1v-1v-1v-1l-1 -1v-1v-1l-1 -1v-1v-1v-1v-1l-1 -1v-1v-1v-1l-1 -1v-1v-1v-1l-1 -1v-1v-1
v-1l-1 -2q-5 -24 39 -68t68 -39l2 1l2 1q150 118 210 178q29 29 48 68q36 71 38 148v11h-11zM78 41l-13 16q-6 -6 -22.5 -14.5t-23 -15t-13 -27t-6.5 -54.5v-10h10q34 0 55.5 7.5t28 14t15 23t12.5 21.5l-17 12q-7 -10 -12.5 -23.5t-9.5 -18.5t-18.5 -9.5t-42.5 -5.5
q1 27 5 40t8.5 17t18.5 11t25 16zM317 284q0 17 7 24t24 7t24 -7t7 -24t-7 -24t-24 -7t-24 7t-7 24zM297 284q0 -24 13.5 -37.5t37.5 -13.5t37.5 13.5t13.5 37.5t-13.5 37.5t-37.5 13.5t-37.5 -13.5t-13.5 -37.5z" />
    <glyph glyph-name="uniF15F" unicode="&#xf15f;" 
d="M287 369l12 -16q39 29 73 30.5t54 -21.5q18 -17 21.5 -40.5t-10.5 -53.5t-46 -62q-48 -48 -95.5 -59.5t-70.5 14.5q-25 25 -15 68l-20 5q-13 -54 20 -88q37 -33 90.5 -19.5t105.5 65.5q51 51 60 101t-25 84q-29 29 -70 27t-84 -35zM167 236l-20 4
q-5.37801 -26.889 -2.658 -50.435q0.667007 -20.026 -6.342 -51.565q-8 -36 -21 -49l-4.716 -4.7158q-4.586 1.7158 -9.784 1.7158q-10.5 0 -17.5 -7l-75 -75q-9 -11 -5.5 -24.5t14.5 -24.5t24.5 -14.5t24.5 5.5l75 75q7 7 7 18q0 5.1688 -1.54601 9.4544l4.54601 4.5456
q13 13 49 20.5q30.395 6.3323 50.097 6.6053q20.468 -2.3483 43.903 1.3947q72 11.5 140 79.5q45 46 63 92t10 85t-38 69q-37 37 -87 40t-108 -33l11 -17q53 33 95.5 30.5t74.5 -34.5q25 -26 32.5 -58.5t-9 -74.5t-58.5 -84q-43 -43 -87.5 -61.5t-80 -13.5t-59.5 30
q-41 40 -28 105zM92 345.5q0 -44.5 24 -68.5t68.5 -24t68 24t23.5 68.5t-23.5 68.5t-68 24t-68.5 -24t-24 -68.5zM128 43q4 -4 0 -8l-74 -74q-9 -3 -20.5 8.5t-8.5 20.5l74 74q4 4 8 0zM204.605 96.0686q-4.21399 -0.724106 -8.605 -1.5686q-39 -7.5 -58 -26.5l-3 -3l-6 6
l3 3q19 19 27 58q0.925003 4.507 1.702 8.827q2.42101 -4.049 5.18001 -7.959l-0.882004 0.132004q-2 -13 -6 -25l-4 -17l17 4q11 3 23 5l-0.266998 2.8q4.799 -3.64751 9.87199 -6.7314zM254.166 323.075q-3.75 -20.659 -15.166 -32.075q-12.355 -12.355 -35.54 -15.731
q-4.50301 35.735 -30.898 58.669q-38.447 33.839 -56.804 38.446q4.09 17.464 14.242 27.616q11.275 11.275 31.568 15.072q8.24901 -31.889 34.432 -58.072q26.053 -26.053 58.166 -33.925zM182.25 416.984q1.116 0.0159912 2.25 0.0159912q37.5 0 54.5 -17t17 -54.5
q0 -0.889008 -0.00999451 -1.76599q-24.921 7.19699 -45.99 28.266q-20.338 20.338 -27.75 44.984zM190.395 274.11q-2.881 -0.109985 -5.895 -0.109985q-37.5 0 -54.5 17t-17 54.5q0 7.62201 0.702003 14.397q19.061 -7.13199 44.798 -36.397q25.953 -28.98 31.895 -49.39z
" />
    <glyph glyph-name="uniF160" unicode="&#xf160;" 
d="M295 134l-15 15l-38 -39h-27v-26l-14 -15h-27v-26l-25 -25h-36v-37l-25 -25h-53l-15 15v53l192 191l-15 15l-197 -198v-70l26 -26h70l37 37v24h25l37 37v15h14l27 26v15h14zM512 284q0 68 -48 116t-116 48t-116 -48t-48 -116t48 -116t116 -48t116 48t48 116zM492 284.5
q0 -59.5 -42 -101.5t-101.5 -42t-101.5 42t-42 101.5t42 101.5t101.5 42t101.5 -42t42 -101.5zM261 357l160 -160l7 8q33 32 33 79t-33 80t-80 33t-79 -33zM420 227l-129 129q28 22 62.5 20t59.5 -27q26 -25 27 -61t-20 -61zM9 -20l15 -14l170 170l-14 15z" />
    <glyph glyph-name="uniF161" unicode="&#xf161;" 
d="M297 397v-244l6 -3q25 -13 40 -37.5t15 -53.5q0 -43 -30 -73t-72 -30t-72 30t-30 73q0 29 15 53.5t40 37.5l6 3v244q0 31 41 31t41 -31zM317 165v232q0 25 -18 38t-43 13t-43 -13t-18 -38v-232q-29 -17 -45.5 -45t-16.5 -61q0 -51 36 -87t87 -36t87 36t36 87
q0 34 -17.5 62.5t-44.5 43.5zM205 356v-21h143v21h-143zM307 315v-21h41v21h-41zM307 274v-21h41v21h-41zM307 233v-21h41v21h-41zM307 192v-20h41v20h-41z" />
    <glyph glyph-name="uniF162" unicode="&#xf162;" 
d="M373 228q29 0 49 -20t20 -49t-20 -49t-49 -20q-15 0 -32.5 6t-27 12t-29.5 19l-23 16l8 -27q13 -44 34 -116q-48 6 -94 0l42 143l-23 -16q-21 -13 -30 -19t-26.5 -12t-32.5 -6q-29 0 -49 20t-20 49t20 49t49 20q31 0 75 -28l40 -26l-26 40q-1 2 -8 12.5t-9 14t-7.5 12.5
t-7 14t-4.5 13t-4 15t-1 14q0 29 20 49t49 20t49 -20t20 -49q0 -7 -1 -14t-4 -15t-4.5 -13t-7 -14t-7.5 -12.5t-9 -14t-8 -12.5l-26 -40l40 25q44 29 75 29zM373 249q-23 0 -50 -12q23 40 23 72q0 37 -26.5 63.5t-63.5 26.5t-63.5 -26.5t-26.5 -63.5q0 -32 23 -72
q-27 12 -50 12q-37 0 -63.5 -26.5t-26.5 -63.5t26.5 -63.5t63.5 -26.5q35 0 77 26l-36 -121l16 3q59 11 120 0l16 -3l-5 16q-17 58 -31 105q42 -26 77 -26q37 0 63.5 26.5t26.5 63.5t-26.5 63.5t-63.5 26.5z" />
    <glyph glyph-name="uniF163" unicode="&#xf163;" 
d="M410 294q15 0 28 -12t13 -27v-221q0 -15 -11 -26t-26 -11h-316q-15 0 -26 11t-11 26v219q0 14 12 27.5t29 13.5h308zM410 315h-308q-26 0 -43.5 -20t-17.5 -42v-219q0 -23 17 -40t40 -17h316q23 0 40 17t17 40v221q0 24 -18.5 42t-42.5 18zM369 335h20v35
q0 30 -14.5 40.5t-47.5 1.5q-54 -14 -214 -58v-1q-43 -16 -57.5 -35.5t-14.5 -53.5v-25l20 -1l1 26q0 30 9.5 43t47.5 27q182 50 213 58q28 7 32.5 4t4.5 -26v-35zM394.5 120q-10.5 0 -18 7.5t-7.5 18.5t7.5 18.5t18 7.5t18 -7.5t7.5 -18.5t-7.5 -18.5t-18 -7.5z" />
    <glyph glyph-name="uniF164" unicode="&#xf164;" 
d="M61 100h21v102h-21v-102zM24 135l10 -18l86 50l-11 18zM109 117l11 18l-86 50l-10 -18zM174 -23h21v102h-21v-102zM136 12l11 -17l85 49l-10 18zM222 -5l10 17l-85 50l-11 -18zM341 -6l19 7l-25 62l-19 -8zM303 25l8 -19l62 25l-8 19zM429 75l19 8l-17 41l-19 -8z
M406 101l8 -19l40 17l-7 19zM358 264h21v164h-21v-164zM353 417v-20h31v20h-31zM353 294v-20h31v20h-31zM434 296l11 18l-142 81l-10 -17zM299 368l18 -10l15 27l-18 10zM405 307l18 -11l15 27l-17 10zM293 314l10 -18l142 82l-11 17zM421 358l17 10l-15 27l-18 -10z
M314 296l18 11l-15 26l-18 -10zM154 243h20v144h-20v-144zM97 288l10 -18l124 72l-10 18zM221 270l10 18l-124 72l-10 -18z" />
    <glyph glyph-name="uniF165" unicode="&#xf165;" 
d="M379 -23q0 8 6.5 14t14 6t14 -6t6.5 -14t-6.5 -14.5t-14 -6.5t-14 6.5t-6.5 14.5zM358 -23q0 -13 14.5 -27t27 -14t26.5 14t14 27t-14 27t-26.5 14t-27 -14t-14.5 -27zM246 -23q0 8 6 14t14 6t14.5 -6t6.5 -14t-6.5 -14.5t-14.5 -6.5t-14 6.5t-6 14.5zM225 -23
q0 -13 14.5 -27t27 -14t26.5 14t14 27t-14 27t-26.5 14t-27 -14t-14.5 -27zM0 407.5q0 20.5 20.5 20.5t20.5 -20.5t-20.5 -20.5t-20.5 20.5zM420 -2v20h-157q-19 0 -24 6q-7 8 -12 27l-82 331q-7 23 -19 34q-5 4 -17.5 7.5t-19.5 3.5h-69v-20h69q16 0 23 -6q8 -7 13 -24
l82 -331q6 -24 16 -35q5 -5 18 -9t22 -4h157zM491 281l-19 7l-71 -188h-190v-21h204zM376 267l-15 14l-44 -44l-44 44l-14 -14l58 -59zM328 428h-21v-202h21v202z" />
    <glyph glyph-name="uniF166" unicode="&#xf166;" 
d="M134 147h20v147h147v20h-167v-167zM374 59l15 15l-232 231l-14 -14z" />
    <glyph glyph-name="uniF167" unicode="&#xf167;" 
d="M174 151v-20q46 0 82 -11.5t56 -28.5t36.5 -37t26 -37t21.5 -28.5t25 -11.5q19 0 24.5 46t5.5 189q0 142 -6 189t-25 47q-15 0 -28 -16t-27.5 -38.5t-35.5 -45t-61 -38.5t-94 -16v-20q52 0 93.5 14t66 35.5t41 42.5t27.5 39t15 21q13 -34 13 -214q0 -183 -12 -214
q-4 2 -14 20t-26.5 39t-41.5 43t-67 36.5t-95 14.5zM440 182v-21h11q21 0 36 15t15 36.5t-15 36.5t-36 15h-11v-21h11q12 0 21 -9t9 -21.5t-9 -21.5t-21 -9h-11zM154 141h-21q0 -106 26 -132q10 -10 12.5 -14.5t2.5 -13t-3 -11.5t-11 -3h-36q-11 0 -15 4t-6 15
q-15 79 -27 117.5t-29 50.5l-11 -17q20 -14 47 -155q7 -36 41 -36h36q17 0 26 10.5t9 25.5q0 20 -21 41q-3 3 -7 14t-8.5 39.5t-4.5 64.5zM65 274h99v-123h-99q-19 0 -32 13t-13 31v35q0 18 13 31t32 13zM65 294q-27 0 -46 -18.5t-19 -45.5v-35q0 -27 19 -45.5t46 -18.5h119
v163h-7h-3h-109z" />
    <glyph glyph-name="uniF168" unicode="&#xf168;" 
d="M65 15l14 -14l368 368l-14 14z" />
    <glyph glyph-name="uniF169" unicode="&#xf169;" 
d="M351 25l15 -14l41 41l-15 14zM54 35l15 -14l41 41l-15 14zM215 -44h21v103h-21v-103zM177 -8l11 -18l85 50l-10 17zM263 -26l10 18l-85 49l-11 -17zM369 131h-246q-26 0 -44 18t-18 43t18 43t44 18h10l14 -3l-2 14q-2 8 -2 15q0 36 25.5 61.5t61.5 25.5q33 0 57 -21
t29 -52l2 -14l13 6q18 9 38 9q34 0 58 -24t24 -57.5t-24 -57.5t-58 -24zM369 110q42 0 72 30t30 72.5t-30 72.5t-72 30q-17 0 -35 -6q-10 34 -38.5 56t-65.5 22q-44 0 -75.5 -31.5t-31.5 -76.5q0 -5 3 -6l1 1h-4q-34 0 -58 -24t-24 -58t24 -58t58 -24h246z" />
    <glyph glyph-name="uniF16A" unicode="&#xf16a;" 
d="M20 -44v318h318v-318h-318zM0 -64h358v358h-358v-358zM392 230l15 -15l44 44l44 -44l14 15l-58 58zM509 0l-14 15l-44 -44l-44 44l-15 -15l59 -58zM440 -36h21v307h-21v-307zM279 343l15 -15l58 59l-58 58l-15 -14l44 -44zM79 431l-15 14l-58 -58l58 -59l15 15l-44 44z
M28 397v-21h307v21h-307z" />
    <glyph glyph-name="uniF16B" unicode="&#xf16b;" 
d="M180.759 -46.1514l19.282 6.9034l-48.839 136.412q4.92101 4.6088 11.733 10.4838q10.285 8.868 38.174 23.72q27.889 14.852 51.151 14.852q30.285 0 65.855 -10.43q35.571 -10.43 59.245 -10.43q46.814 0 88.24 22.065l5.41998 2.89099v298.665l-16.682 -13.502
q-5.492 -4.41501 -14.946 -10.961q-9.45401 -6.54602 -35.091 -17.507t-47.021 -10.961q-20.378 0 -64.504 20.855q-44.127 20.855 -81.556 20.855q-30.688 0 -60.081 -7.397q-29.392 -7.397 -47.927 -16.328q-18.5358 -8.93201 -35.5128 -20.889
q-11.8546 -8.349 -17.7823 -13.086l-5.7362 16.022l-19.2813 -6.90302zM123.004 399.443q6.75301 2.61099 14.409 5.298q35.724 12.539 73.807 12.539q6.37801 0 13.424 -0.983002l20.727 -77.967l-16.005 1.01401q-42.26 0 -77.62 -13.701l34.94 -89.693
q-33.757 -13.004 -69.131 -44.712l-33.8246 94.429q30.9526 26.607 68.0156 39.976zM186.686 235.95l7.39299 2.442q7.39401 2.442 18.991 4.88499q11.596 2.442 20.002 2.442q18.877 0 37.663 -2.77499l-25.364 95.386q18.912 0 71.629 -25.815l-17.597 77.05
q33.6 -13.995 57.877 -13.995q14.661 0 30.256 3.785q3.01398 -37.332 6.02798 -74.664l8.99802 2.76099q8.987 2.75201 25.794 11.415q11.359 5.85498 22.184 13.157v-88.475q-24.956 -12.766 -50.606 -17.542l-6.37 78.684l-28.744 -4.035q-24.548 0 -47.82 11.859
l19.599 -85.935q-59.412 15.46 -65.864 16.364l21.158 -79.51q-19.991 3.26599 -39.633 3.26599q-18.122 0 -36.935 -6.043zM354.419 148.586l-17.82 77.994l33.095 -3.625q13.43 0 30.24 3.052l6.16602 -77.495q-14.463 -2.672 -28.74 -2.672q-9.01599 0 -22.941 2.746z
" />
    <glyph glyph-name="uniF16C" unicode="&#xf16c;" 
d="M337 161h134v-133h-430v133h134q4 -28 26.5 -49.5t54.5 -21.5q31 0 54 20t27 51zM317 172q0 -26 -18 -44t-43 -18t-43 18t-18 44v10h-175v-174h472v174h-175v-10zM21 175l19 -7l60 178h312l60 -178l19 7l-64 191h-342z" />
    <glyph glyph-name="uniF16D" unicode="&#xf16d;" 
d="M290 -36l14 -15l21 21l-15 14zM198 5l14 -15l21 21l-15 14zM392 5l15 -15l20 21l-14 14zM134 182l11 -6l42 159h-13q-34 0 -58 -24t-24 -58q0 -22 11.5 -41t30.5 -30zM133 208q-20 19 -20 45q0 22 14.5 39t32.5 21zM174 335v-20q23 0 40 -15l13 16q-23 19 -53 19z
M174 335v-20q23 0 40 -15l13 16q-23 19 -53 19zM164 366h20v51h-20v-51zM10 264v-21h51v21h-51zM246 340l15 -14l36 36l-14 15zM51 145l14 -15l37 37l-15 14zM65 377l-14 -15l36 -36l15 14zM420 212q30 0 51 -21t21 -50.5t-21 -50.5t-51 -21h-215q-21 0 -36 15t-15 36.5
t15 36.5t36 15h3h12l-3 12q-2 9 -2 18q0 34 24 58t58 24q30 0 53 -20t28 -49l2 -13l12 5q13 5 28 5zM420 233q-11 0 -24 -3q-11 34 -37.5 54.5t-61.5 20.5q-42 0 -72 -30t-30 -73v-11q-28 -4 -45 -24t-17 -47q0 -29 21 -50t51 -21h215q38 0 65 27t27 65t-27 65t-65 27z" />
    <glyph glyph-name="uniF16E" unicode="&#xf16e;" 
d="M399 202h-51v21h51v-21zM164 202h-51v21h51v-21zM481 315q5 0 8 -3t3 -7v-82h-72q0 8 -6 14t-15 6h-51q-8 0 -14 -6t-6 -14h-144q0 8 -6 14t-14 6h-51q-9 0 -15 -6t-6 -14h-72v82q0 4 3 7t8 3h450zM420 202h72v-184q0 -4 -3 -7t-8 -3h-450q-5 0 -8 3t-3 7v184h72
q0 -8 6 -14t15 -6h51q8 0 14 6t6 14h144q0 -8 6 -14t14 -6h51q9 0 15 6t6 14zM348 335v31q0 13 -9 22t-22 9h-122q-13 0 -22 -9t-9 -22v-31h-133q-13 0 -22 -9t-9 -21v-287q0 -13 9 -22t22 -9h450q13 0 22 9t9 22v287q0 12 -9 21t-22 9h-133zM184 335v31q0 4 3 7t8 3h122
q5 0 8 -3t3 -7v-31h-144z" />
    <glyph glyph-name="uniF16F" unicode="&#xf16f;" 
d="M508 141l-221 168v-107q-52 2 -94.5 13t-69 26.5t-47 36.5t-30.5 38t-16.5 36t-7.5 25.5t-2 9.5h-20v-17t5 -42.5t14 -60t30 -63.5t50.5 -60.5t78 -44t109.5 -20.5v-106zM307 268l168 -127l-168 -127v86h-10q-53 0 -96.5 13t-71 33t-48.5 48.5t-32 53t-18 52.5
q75 -118 266 -118h10v86z" />
    <glyph glyph-name="uniF170" unicode="&#xf170;" 
d="M433 262l59 59q-1 -28 -8 -63.5t-18 -47.5q-28 -27 -56 -36t-51 -1.5t-43 27.5l-51 51q-19 19 -25 45.5t-1 50t18 36.5t26 22t22 14t22 7t19 2.5t21 0t20 -0.5q-54 -53 -60 -59q-10 -12 -6.5 -50.5t13.5 -48.5q9 -9 49 -13t50 5zM420 277q-9 -2 -36.5 1t-35.5 6
q-4 11 -6 37.5t0 34.5q4 4 21 21.5t31.5 31.5l14.5 14l1 1v1q1 1 1.5 2.5t1.5 5.5t0.5 7t-4 5.5t-10.5 2.5q-3 0 -23.5 1t-30.5 0t-29 -5.5t-36.5 -16t-36.5 -30.5q-17 -17 -23 -45.5t1.5 -60t29.5 -54.5l51 -51q24 -24 52 -32.5t61 1.5t64.5 41.5t31.5 136.5q1 11 -5 14
t-12 0l-5 -2h-1l-1 -1q-58 -59 -67 -67zM130 -40q171 206 191 223l4 8q-9 4 -61 -50.5t-100 -111.5l-47 -56q-9 -8 -20 -13t-28 -3t-31.5 16t-16.5 31t3 29t13 20v-1l218 200l-12 13l-218 -199h-1zM24 66q-10 -11 -17 -26.5t-4 -38t21.5 -41.5t41 -21.5t38.5 4.5t26 17z" />
    <glyph glyph-name="uniF171" unicode="&#xf171;" 
d="M20 192q0 38 36.5 79t92 68t107.5 27t107.5 -27t92 -68t36.5 -79t-36.5 -79t-92 -68t-107.5 -27t-107.5 27t-92 68t-36.5 79zM0 192q0 -42 40.5 -88t101 -76.5t114.5 -30.5t114.5 30.5t101 76.5t40.5 88t-40.5 88t-101 76.5t-114.5 30.5t-114.5 -30.5t-101 -76.5
t-40.5 -88z" />
    <glyph glyph-name="uniF172" unicode="&#xf172;" 
d="M420 79q21 0 36 -15t15 -36t-15 -36t-36 -15t-36 15t-15 36q0 20.5109 14.309 35.298q-4.95798 8.0314 -9.80899 16.702q-0.596985 1.0677 -1.189 2.1335q-1.681 -1.5035 -3.311 -3.1335q-21 -21 -21 -50.5t21 -51t50.5 -21.5t51 21.5t21.5 51t-21.5 50.5t-51 21
q-16.412 0 -30.193 -6.4996q0.839996 -1.4978 1.69299 -3.0004q4.54599 -8.0055 9.13199 -15.4053q9.15302 3.9053 19.868 3.9053zM420 120q38 0 65 -27t27 -65t-27 -65t-65 -27t-65 27t-27 65t27 65q3.76999 3.7697 7.754 7.013q-7.38101 14.36 -13.612 28.357
q-4.87799 -3.106 -10.642 -8.87q-7.5 -7.5 -14.5 -18.5t-10 -30t0 -41v-1q1 -17 -18.5 -24t-43.5 -7q-46.424 -0.69289 -69.803 11.0968q-5.17401 -26.0732 -25.197 -46.0967q-27 -27 -65 -27t-65 27t-27 65t27 65t65 27q9.505 0 18.322 -1.689
q-0.954002 0.900002 -1.822 1.689q-5.5 5 -17 7.5t-15.5 3t-18 0.5h-17q-24 0 -38 13l-4 4v1v1l1 1v1v1v1q0.157415 0.156998 0.314829 0.315002q0.188507 0.675995 0.431838 1.35201q-0.178889 -0.639008 -0.357778 -1.278l0.611111 0.610992v1v0.332993
q0.23617 0.591003 0.51416 1.18102l0.48584 0.485992v0.485992q1.19433 2.257 3 4.51401q4 5 12 12.5t25 12t40 4.5q34 0 47.5 -4.5t22.5 -21.5q3 -4 22.5 -9.5t39.5 -5.5l3 7.5q3 7.5 5.5 11.5t9 11t14.5 11t21 7t30 3q8 0 14.5 10q5.61301 8.63499 5.633 15.033
q-0.0660095 -0.0160065 -0.132996 -0.0330048q-1 6 -6 16q-24 -4 -38 -17l-14 14q22 23 58 24h7l3 -6q7 -12 10 -26l4 -16q0.549988 -2.198 1.146 -4.50101q15.677 11.501 42.854 11.501q35 0 35 -36t-35 -36q-13.591 0 -24.45 2.186q8.17001 -20.554 19.314 -42.149
q18.242 8.963 40.136 8.963zM92 79q21 0 36 -15q11.298 -11.2981 14.086 -26h21.343q-2.89301 23.4637 -20.429 41q-1.713 1.7134 -3.483 3.287l-0.516998 -0.287003q-0.332993 0.665497 -0.669998 1.3209q-19.539 16.6791 -45.83 16.6791q-29.5 0 -51 -21t-21.5 -50.5
t21.5 -51t51 -21.5t50.5 21.5q17.168 17.5767 20.301 40.5h-21.215q-2.78799 -14.702 -14.086 -26q-15 -15 -36 -15t-36 15t-15 36t15 36t36 15zM92 59q-13 0 -22 -9t-9 -22t9 -22t22 -9t22 9q5.305 5.3051 7.483 12h-29.483v20h29.483q-2.178 6.6949 -7.483 12q-9 9 -22 9z
M155.967 94.0192q0.518005 -0.5047 1.033 -1.0192q25.171 -25.1711 26.876 -59.9024q5.23499 -4.5917 26.624 -9.5976q23.5 -5.5 41.5 -5.5q32 0 41 10q-8 81 47 119q-7 19 -15 49q-11 -14 -28 -14q-27 0 -40.5 -8t-15.5 -17.5t-7.5 -17.5t-18.5 -8q-66 0 -81 25
q-6 12 -12 14t-40 2q-41 0 -58 -18q9 -3 17 -3h12.5h14.5t14 -1t16 -3t15 -6.5t15.5 -11t14.5 -16q7.321 -8.694 12.967 -19.4808zM0.746667 155.667q0.12 0.332993 0.253333 0.665985v0.238007zM18 217.286q-0.0400009 -0.14299 -0.0799999 -0.285995h0.0799999v0.285995z
M18 217.286v0.714005v1v1l1 1v1v1v1l1 1v1v1v1h1zM17.92 217l-1.92 -6.85699v0.856995v1v1l1 1v1v1v1h0.92zM16 210.143q-0.0277996 -0.098999 -0.0556002 -0.199005l0.0556002 0.0559998v0.143005zM15.9444 209.944l-0.9444 -3.373v0.429001v1v1zM15 206.571
q-0.1111 -0.395996 -0.2222 -0.792999l0.2222 0.222v0.570999zM14.7778 205.778l-0.7778 -2.778v1v1zM14 203l-0.28 -1h0.28v1zM13.72 202q-0.360001 -1.286 -0.72 -2.571v0.570999v1v1h0.72zM13 199.429q-0.0600004 -0.214996 -0.12 -0.429001h0.12v0.429001zM12.88 199
l-0.88 -3.14301v0.143005v1v1v1h0.88zM12 195.857l-0.24 -0.856995h0.24v0.856995zM11.76 195q-0.38 -1.35699 -0.76 -2.714v0.714005v1v1h0.76zM11 192.286q-0.25 -0.89299 -0.5 -1.786l0.5 0.5v1v0.285995zM10.5 190.5q-0.25 -0.893005 -0.5 -1.786v0.285995v1z
M10 188.714l-0.27778 -0.992004l0.27778 0.278v0.714005zM9.72222 187.722l-0.72222 -2.57899v0.856995v1zM9 185.143q-0.0277796 -0.098999 -0.0555601 -0.199005l0.0555601 0.0559998v0.143005zM8.94444 184.944l-0.94444 -3.373v0.429001v1v1zM8 181.571
q-0.30556 -1.091 -0.61111 -2.18199l0.61111 0.610992v1v0.570999zM7.38889 179.389l-0.38889 -1.38901v1zM7 178l-0.38889 -1.38901l0.38889 0.389008v1zM6.61111 176.611q-0.30555 -1.09099 -0.61111 -2.18199v0.570999v1zM6 174.429l-0.55556 -1.985l0.55556 0.556v1
v0.429001zM5.44444 172.444q-0.22222 -0.792999 -0.44444 -1.58701v0.143005v1zM5 170.857l-0.72222 -2.57899l0.72222 0.722v1v0.856995zM4.27778 168.278l-0.27778 -0.992004v0.714005zM4 167.286q-0.25 -0.89299 -0.5 -1.786l0.5 0.5v1v0.285995zM3.5 165.5
q-0.25 -0.893005 -0.5 -1.786v0.285995v1zM3 163.714l-0.66667 -2.38101q0.33334 0.334015 0.66667 0.667007v1v0.714005zM2.33333 161.333q-0.16666 -0.594986 -0.33333 -1.18999v0.856995q0.16667 0.167007 0.33333 0.332993zM2 160.143
q-0.41667 -1.48801 -0.83333 -2.976q0.17374 0.172989 0.34749 0.347q0.22876 0.485992 0.48584 0.971985v0.514008v1v0.143005zM1.16667 157.167l-0.16667 -0.596008v0.429001q0.08333 0.0829926 0.16667 0.167007zM394.606 46.028q-5.60599 -7.7683 -5.60599 -18.028
q0 -13 9 -22t22 -9t22 9t9 22t-9 22t-22 9q-4.54099 0 -8.595 -1.0984q13.14 -18.8864 26.595 -32.9016l-15 -14q-14.591 15.152 -28.394 35.028zM346.988 193.811q2.08099 -7.27101 4.51199 -15.311q0.416992 -1.38 0.824005 -2.717l0.675995 1.217q11 -5 32 -5h7.5
t4.5 0.5t2.5 1.5t0.5 2.5t-0.5 4.5t-0.5 6t0.5 7t0.5 4.5t-1.5 2t-4.5 1.5h-9q-25 0 -35 -11q-1.50601 1.40601 -3.01199 2.811z" />
    <glyph glyph-name="uniF173" unicode="&#xf173;" 
d="M61 225l390 117v-299l-390 136v46zM41 241v-77l430 -150v356zM269 91l-19 6l-9 -25q-3 -10 -12.5 -15t-18.5 -1l-43 14q-10 3 -14.5 12.5t-1.5 18.5l9 24l-19 7l-9 -24q-6 -18 2.5 -35t26.5 -23l42 -14q18 -6 35 2.5t23 26.5zM471 28v328q0 10 10 10q5 0 8 -3t3 -7v-328
q0 -4 -3 -7t-8 -3q-10 0 -10 10zM451 28q0 -13 9 -22t21.5 -9t21.5 9t9 22v328q0 13 -9 22t-21.5 9t-21.5 -9t-9 -22v-328zM20 172v61q0 4 3 7t8 3q10 0 10 -10v-61q0 -5 -3 -8t-7.5 -3t-7.5 3t-3 8zM0 172q0 -13 9 -22t21.5 -9t21.5 9t9 22v61q0 13 -9 22t-21.5 9t-21.5 -9
t-9 -22v-61z" />
    <glyph glyph-name="uniF174" unicode="&#xf174;" 
d="M315 311l-14 -15l104 -104l-105 -104l15 -15l119 119zM92 202v-20h322v20h-322z" />
    <glyph glyph-name="uniF175" unicode="&#xf175;" 
d="M307 48.5q0 10.5 10.5 10.5t10.5 -10.5t-10.5 -10.5t-10.5 10.5zM307 110q0 10 10.5 10t10.5 -10t-10.5 -10t-10.5 10zM338 141q0 10 10 10t10 -10t-10 -10t-10 10zM307 171.5q0 10.5 10.5 10.5t10.5 -10.5t-10.5 -10.5t-10.5 10.5zM307 233q0 10 10.5 10t10.5 -10
t-10.5 -10t-10.5 10zM369 48.5q0 10.5 10 10.5t10 -10.5t-10 -10.5t-10 10.5zM369 110q0 10 10 10t10 -10t-10 -10t-10 10zM338 79.5q0 10.5 10 10.5t10 -10.5t-10 -10.5t-10 10.5zM338 202q0 10 10 10q1.08401 0 2.05099 -0.117996l-35.027 72.284
q-8.02399 1.15503 -8.02399 10.334q0 2.73401 0.712006 4.75699l-13.617 28.102q-2.48502 -2.23901 -7.095 -2.353v-51.012q10 -0.246979 10 -10.494q0 -10.247 -10 -10.494v-41.012q10 -0.235001 10 -9.994t-10 -9.994v-41.012q10 -0.235001 10 -9.994t-10 -9.994v-41.0121
q10 -0.246895 10 -10.4939q0 -10.2469 -10 -10.4939v-41.0119q10 -0.235199 10 -9.9942h41q0 10 10 10t10 -10h41q0 10 10.5 10t10.5 -10h24l-26.206 54.0807q-2.60699 -3.0807 -8.29401 -3.0807q-10.5 0 -10.5 10.5q0 10.3046 10.113 10.4964l-34.776 71.7656
q-5.33701 2.067 -5.33701 9.73801q0 0.621002 0.0350037 1.205l-11.838 24.43q-2.03101 -5.13499 -9.19699 -5.13499q-10 0 -10 10zM266 431l211 -434h-211v434zM225 342v-324h-157zM246 -3v434l-211 -434h211z" />
    <glyph glyph-name="uniF176" unicode="&#xf176;" 
d="M225 386.5q0 11.5 43.5 26.5t90 15t90 -15t43 -26.5t-43.5 -26t-89.5 -14.5t-90 14.5t-43.5 26zM205 386.5q0 -22.5 52 -42t101 -19.5t101.5 19.5t52.5 42t-52.5 42t-101.5 19.5t-101 -19.5t-52 -42zM225 376h-20v-61q0 -11 16.5 -26t32.5 -20q14 -5 49 -10.5t55.5 -5.5
t55.5 5.5t49 10.5q15 5 32 20t17 26v61h-20v-61q-1 -4 -12 -13t-24 -14q-13 -4 -45.5 -9t-52 -5t-52 5t-46.5 9q-12 5 -23.5 14t-11.5 13v61zM294 208l-4 -20q32 -6 68 -6q21 0 56 5t49 10q15 6 32 21t17 25v62h-20v-62q-1 -4 -12 -13t-24 -13q-13 -5 -45.5 -10t-52.5 -5
q-34 0 -64 6zM225 305h-20v-44h20v44zM299 135l-3 -20q29 -5 62 -5q21 0 56 5t49 11q15 5 32 20t17 26v61h-20v-61q-1 -4 -12 -13t-24 -14t-45.5 -9.5t-52.5 -4.5q-31 0 -59 4zM298 64l-3 -20q30 -6 63 -6q21 0 56 5.5t49 10.5q15 5 32 20t17 26v61h-20v-61q-1 -4 -12 -13
t-24 -14q-13 -4 -45.5 -9t-52.5 -5q-31 0 -60 5zM20 212.5q0 11.5 43.5 26t90 14.5t90 -14.5t43.5 -26t-43.5 -26t-90 -14.5t-90 14.5t-43.5 26zM0 212.5q0 -22.5 52.5 -42t101.5 -19.5t101 19.5t52 42t-52 42t-101 19.5t-101.5 -19.5t-52.5 -42zM20 202h-20v-61
q0 -11 17 -26t32 -20q14 -5 49 -10.5t55.5 -5.5t55.5 5.5t49 10.5q16 5 32.5 20t16.5 26v61h-20v-61q0 -4 -11.5 -13t-23.5 -14q-14 -5 -46.5 -9.5t-52 -4.5t-52 4.5t-45.5 9.5t-24.5 14t-11.5 13v61zM20 131h-20v-62q0 -10 17 -25t32 -21q14 -5 49 -10t55.5 -5t55.5 5
t49 10q16 6 32.5 21t16.5 25v62h-20v-62q0 -4 -11.5 -13t-23.5 -13q-14 -5 -46.5 -10t-52 -5t-52 5t-45.5 10q-13 4 -24.5 13t-11.5 13v62zM20 59h-20v-62q0 -10 17 -25t32 -20q14 -6 49 -11t55.5 -5t55.5 5t49 11q16 5 32.5 20t16.5 25v62h-20v-62q0 -3 -11.5 -12.5
t-23.5 -13.5q-14 -5 -46.5 -10t-52 -5t-52 5t-45.5 10q-13 4 -24.5 13.5t-11.5 12.5v62z" />
    <glyph glyph-name="uniF177" unicode="&#xf177;" 
d="M154 420l227 -228l-227 -228l-22 22l207 206l-207 206z" />
    <glyph glyph-name="uniF178" unicode="&#xf178;" 
d="M307 114v-1v-2q8 -20 30 -33t44.5 -19t43 -21.5t24.5 -40.5h-366q5 24 25 39t43 21.5t45 20t30 33.5v2v1q1 9 1 13l1 10l-10 1q-45 5 -62 16q8 15 10 46t3 62t7.5 61t29 50t62.5 23h-1q21 0 31 -9l3 -3h4q35 2 48.5 -25.5t15.5 -79.5q1 -13 0.5 -44.5t1.5 -49.5t9 -31
q-18 -12 -65 -16l-9 -1v-10q0 -9 1 -13zM326 118q36 5 56 13t20 24v5l-3 3q-5 4 -5.5 31t-1.5 61.5t-6.5 68.5t-25 57.5t-52.5 23.5q-18 11 -41 11h-1q-46 -3 -73.5 -28t-36.5 -60t-11 -69.5t-2.5 -62.5t-6.5 -34l-3 -3v-4q1 -26 74 -36q-5 -11 -28.5 -21.5t-48 -20t-46 -33
t-23.5 -56.5v-11h411l-1 11q-2 33 -23.5 57t-46 34t-48 20.5t-27.5 18.5z" />
    <glyph glyph-name="uniF179" unicode="&#xf179;" 
d="M246 345h20q0 32 -22.5 54.5t-54 22.5t-54 -22.5t-22.5 -54.5q0 -18 7 -33l19 9q-6 11 -6 24q0 23 16.5 39.5t40 16.5t40 -16.5t16.5 -39.5zM465 192q6 0 6 -7v-50q0 -6 -6 -6h-17q-18 0 -26 -18q-16 -33 -47 -50q-19 -10 -11 -29l5 -13q3 -7 -4 -10l-33 -12q-7 -3 -9 4
q-5 12 -7 19q-3 9 -9 12t-12.5 3t-21 -1.5t-25.5 -1.5t-24 2.5t-19.5 3t-13 -2.5t-9.5 -13q-7 -17 -8 -21q-3 -7 -10 -4l-33 12q-7 3 -4 10q6 14 9 25q6 16 -9 28q-47 37 -49 82q-3 73 44 110q53 41 126 41q31 0 59 -7l8 -2l4 8q8 18 18.5 28t27.5 18q-11 -32 -10 -58v-8
l6 -2q55 -19 63 -74q3 -16 24 -16h17zM465 212h-17q-4 0 -4 1q-11 61 -69 86q1 23 16 64l7 18l-19 -5q-51 -12 -75 -56q-28 6 -56 6q-80 0 -139 -46q-55 -43 -51 -127q2 -54 56 -97q4 -3 3 -6q-3 -9 -9 -24q-4 -11 0.5 -21.5t15.5 -14.5l33 -12q11 -4 21.5 0.5t14.5 15.5
t8 21l1 2q30 -5 46 -5h16t13.5 0.5t9.5 1t6.5 1l2.5 0.5v-2l8 -19q4 -11 14.5 -15.5t20.5 -0.5l33 12q11 4 16 14.5t1 21.5l-6 14v1q0 1 2 2q37 20 56 59q2 6 7 6h17q11 0 19 8t8 19v50q0 11 -8 19t-19 8zM373.5 172q-8.5 0 -14 6t-5.5 14t5.5 13.5t14 5.5t14 -5.5
t5.5 -13.5t-5.5 -14t-14 -6zM67 202l5 19q-3 1 -8.5 3.5t-14 11t-8.5 20.5q0 18 14 24l-8 19q-27 -12 -27 -43q0 -20 12 -33.5t24 -17.5z" />
    <glyph glyph-name="uniF17A" unicode="&#xf17a;" 
d="M174 376h-20v-41h20v41zM143 366v-20h41v20h-41zM92 253h-20v-20h20v20zM72 253v-20h20v20h-20zM410 141q-11 -41 -39 -66.5t-74 -25.5q-51 0 -87 36t-36 87q0 45 26 73.5t66 38.5q0 -59 42 -101t102 -42zM410 161q-51 0 -87 36t-36 87q0 8 1 18l2 13l-13 -2
q-53 -7 -88 -47.5t-35 -93.5q0 -60 42 -102t101 -42q54 0 94 35.5t48 87.5l2 14l-14 -2q-10 -2 -17 -2z" />
    <glyph glyph-name="uniF17B" unicode="&#xf17b;" 
d="M307 444l-168 -221h107q-2 -52 -13 -94.5t-26.5 -69t-36.5 -47t-38 -30.5t-36 -16.5t-25.5 -7.5t-9.5 -2v-20h17t42.5 5t60 14t63.5 30t60.5 50.5t44 78t20.5 109.5h106zM180 243l127 168l127 -168h-86v-10q0 -53 -13 -96.5t-33 -71t-48.5 -48.5t-53 -32t-52.5 -18
q118 75 118 266v10h-86z" />
    <glyph glyph-name="uniF17C" unicode="&#xf17c;" 
d="M379 335.5q0 7.5 6.5 14t14 6.5t14 -6.5t6.5 -14t-6.5 -14t-14 -6.5t-14 6.5t-6.5 14zM358 335.5q0 -12.5 14.5 -27t27 -14.5t26.5 14.5t14 27t-14 26.5t-26.5 14t-27 -14t-14.5 -26.5zM471 392v-153q0 -23 -4 -27l-233 -232q-2 -3 -6 -3t-6 3l-178 178q-3 2 -3 6t3 6
l232 233q4 4 27 4h153q6 0 10.5 -4.5t4.5 -10.5zM492 392q-1 5 -4.5 13.5t-6.5 11.5t-12 7t-13 4h-153q-31 -1 -41 -10l-233 -233q-9 -9 -9 -21t9 -21l178 -178q9 -9 21 -9t21 9l233 233q10 10 10 41v153z" />
    <glyph glyph-name="uniF17D" unicode="&#xf17d;" 
d="M379 335.5q0 7.5 6.5 14t14 6.5t14 -6.5t6.5 -14t-6.5 -14t-14 -6.5t-14 6.5t-6.5 14zM358 335.5q0 -12.5 14.5 -27t27 -14.5t26.5 14.5t14 27t-14 26.5t-26.5 14t-27 -14t-14.5 -26.5zM471 392v-153q0 -23 -4 -27l-233 -232q-2 -3 -6 -3t-6 3l-178 178q-3 2 -3 6t3 6
l232 233q4 4 27 4h153q6 0 10.5 -4.5t4.5 -10.5zM492 392q-1 5 -4.5 13.5t-6.5 11.5t-12 7t-13 4h-153q-31 -1 -41 -10l-233 -233q-9 -9 -9 -21t9 -21l178 -178q9 -9 21 -9t21 9l233 233q10 10 10 41v153zM232 219q2 9 6 17.5t12 16.5t17.5 11t19 2t19 -5.5t17.5 -11.5
q18 -19 18 -40.5t-22 -43.5l-14 15q14 15 16 29t-10 26q-5 5 -11 8t-12.5 3t-12.5 -2t-10 -7q-4 -4 -7 -8t-4 -9l-4 -8q-1 -5 -2 -9l26 -27l-7 -8l-23 23l-4 -8t-6 -8q-5 -5 -11.5 -8t-13 -4t-12.5 -1q-7 1 -14 1q7 -3 12.5 -5.5t10.5 -7.5t8 -10t5 -9q3 -4 5 -9
q3 -4 6.5 -8t9.5 -6t12 -3l-4 -18q-10 1 -18 5.5t-14 11.5q-5 4 -8 9q-2 5 -6 11q-3 5 -6 10.5t-8 10.5t-10.5 7.5t-12.5 3.5l3 19q6 -1 12.5 -1.5t13 1t12.5 4.5t11 8q4 4 7 9.5t5 9.5l-15 15l8 7z" />
    <glyph glyph-name="uniF17E" unicode="&#xf17e;" 
d="M317 115q5 -16 28.5 -27.5t48 -19.5t45 -28.5t22.5 -52.5h-389q2 32 22.5 52.5t45 28.5t48 19.5t28.5 27.5q1 10 1 43q-6 3 -14 19t-9 31q-15 1 -18 29q-2 15 8 21q-9 39 -8 71t23.5 52.5t65.5 21.5q37 0 47 -18q23 -3 35 -19t12 -38t-2.5 -39t-7.5 -31q10 -6 8 -21
q-3 -28 -18 -29q-2 -15 -9.5 -31t-13.5 -19q0 -33 1 -43z" />
    <glyph glyph-name="uniF17F" unicode="&#xf17f;" 
d="M321 270l-65 170l-65 -170l-182 -10l141 -114l-47 -176l153 99l153 -99l-47 176l141 114zM256 383l51 -132l142 -8l-110 -90l36 -137l-119 77l-119 -77l36 137l-110 90l142 8z" />
    <glyph glyph-name="uniF180" unicode="&#xf180;" 
d="M61 223q0 66 64.5 130t130.5 64t130.5 -64t64.5 -130t-64.5 -130.5t-130.5 -64.5t-130.5 64.5t-64.5 130.5zM41 223q0 -46 34 -97t84.5 -84.5t96.5 -33.5t96.5 33.5t84.5 84.5t34 97t-34 96.5t-84.5 84.5t-96.5 34t-96.5 -34t-84.5 -84.5t-34 -96.5zM154 223
q0 35 33.5 68.5t68.5 33.5t68.5 -33.5t33.5 -68.5t-33.5 -69t-68.5 -34t-68.5 34t-33.5 69zM133 223q0 -40 41.5 -81.5t81.5 -41.5t81.5 41.5t41.5 81.5t-41.5 81.5t-81.5 41.5t-81.5 -41.5t-41.5 -81.5zM195 222.5q0 21.5 20 41.5t41 20t41 -20t20 -41.5t-20 -41.5t-41 -20
t-41 20t-20 41.5zM174 222.5q0 -26.5 28 -54t54 -27.5t54 27.5t28 54t-28 54.5t-54 28t-54 -28t-28 -54.5zM355 51l-3 -20q38 -6 60 -17q7 -4 13 -9.5t6 -7t-6.5 -6.5t-18 -11t-22.5 -9q-18 -5 -60.5 -10t-67.5 -5t-67.5 5t-60.5 10q-11 3 -22.5 9t-18 11t-6.5 6.5t6 7.5
t13 9q22 11 61 17l-3 20q-42 -7 -67 -20q-9 -4 -19 -15t-10 -19q0 -10 21 -25t40 -20t63 -10t70 -5t70 5t63 10t40 20t21 25q0 8 -10 19t-19 15q-25 12 -66 20z" />
    <glyph glyph-name="uniF181" unicode="&#xf181;" 
d="M205 -60l168 221h-107q2 52 13 94.5t26.5 69t36.5 47t38 30.5t36 16.5t25.5 7.5t9.5 2v20h-17t-42.5 -5t-60 -14t-63.5 -30t-60.5 -50.5t-44 -78t-20.5 -109.5h-106zM332 141l-127 -168l-127 168h86v10q0 53 13 96.5t33 71t48.5 48.5t53 32t52.5 18q-118 -75 -118 -266
v-10h86z" />
    </font>
</defs>
</svg>
